<svg width="639.000000" height="409.000000" viewBox="0 0 639 409" fill="none" xmlns="http://www.w3.org/2000/svg" xmlns:xlink="http://www.w3.org/1999/xlink">
	<desc>
			Created with Pixso.
	</desc>
	<defs>
		<linearGradient id="paint_linear_731_1242_0" x1="106.544205" y1="260.000000" x2="230.695190" y2="590.858032" gradientUnits="userSpaceOnUse">
			<stop stop-color="#FFFFFF" stop-opacity="0.168627"/>
			<stop offset="1.000000" stop-color="#000000" stop-opacity="0.000000"/>
		</linearGradient>
		<linearGradient id="paint_linear_731_1243_0" x1="93.046112" y1="277.921875" x2="116.108704" y2="318.782532" gradientUnits="userSpaceOnUse">
			<stop stop-color="#FFFFFF" stop-opacity="0.560784"/>
			<stop offset="1.000000" stop-color="#C4C4C4" stop-opacity="0.000000"/>
		</linearGradient>
		<linearGradient id="paint_linear_731_1244_0" x1="44.368404" y1="295.841797" x2="52.623772" y2="336.702454" gradientUnits="userSpaceOnUse">
			<stop stop-color="#F9C746" stop-opacity="0.521569"/>
			<stop offset="1.000000" stop-color="#C4C4C4" stop-opacity="0.000000"/>
		</linearGradient>
		<linearGradient id="paint_linear_731_1245_0" x1="91.324661" y1="295.841797" x2="95.255806" y2="336.702454" gradientUnits="userSpaceOnUse">
			<stop stop-color="#84EBE5" stop-opacity="0.619608"/>
			<stop offset="1.000000" stop-color="#C4C4C4" stop-opacity="0.000000"/>
		</linearGradient>
		<linearGradient id="paint_linear_731_1246_0" x1="44.368404" y1="367.527344" x2="52.623772" y2="408.388000" gradientUnits="userSpaceOnUse">
			<stop stop-color="#FFFFFF" stop-opacity="0.560784"/>
			<stop offset="1.000000" stop-color="#C4C4C4" stop-opacity="0.000000"/>
		</linearGradient>
		<linearGradient id="paint_linear_731_1247_0" x1="91.324661" y1="367.527344" x2="95.255806" y2="408.388000" gradientUnits="userSpaceOnUse">
			<stop stop-color="#F47D9E"/>
			<stop offset="1.000000" stop-color="#C4C4C4" stop-opacity="0.000000"/>
		</linearGradient>
		<linearGradient id="paint_linear_731_1248_0" x1="58.583748" y1="331.685547" x2="61.728645" y2="372.546204" gradientUnits="userSpaceOnUse">
			<stop stop-color="#F2C87D"/>
			<stop offset="1.000000" stop-color="#C4C4C4" stop-opacity="0.000000"/>
		</linearGradient>
		<linearGradient id="paint_linear_731_1249_0" x1="108.124405" y1="331.685547" x2="117.690140" y2="372.546204" gradientUnits="userSpaceOnUse">
			<stop stop-color="#FFFFFF" stop-opacity="0.619608"/>
			<stop offset="1.000000" stop-color="#C4C4C4" stop-opacity="0.000000"/>
		</linearGradient>
		<linearGradient id="paint_linear_731_1250_0" x1="24.121902" y1="329.893402" x2="58.153202" y2="372.008575" gradientUnits="userSpaceOnUse">
			<stop stop-color="#F37D9D"/>
			<stop offset="1.000000" stop-color="#C4C4C4" stop-opacity="0.000000"/>
		</linearGradient>
		<linearGradient id="paint_linear_731_1251_0" x1="52.553146" y1="313.763672" x2="63.298218" y2="354.624329" gradientUnits="userSpaceOnUse">
			<stop stop-color="#FFFFFF" stop-opacity="0.580392"/>
			<stop offset="1.000000" stop-color="#C4C4C4" stop-opacity="0.000000"/>
		</linearGradient>
		<linearGradient id="paint_linear_731_1252_0" x1="112.430603" y1="313.763672" x2="118.065224" y2="354.624329" gradientUnits="userSpaceOnUse">
			<stop stop-color="#FFFFFF" stop-opacity="0.450980"/>
			<stop offset="1.000000" stop-color="#C4C4C4" stop-opacity="0.000000"/>
		</linearGradient>
		<linearGradient id="paint_linear_731_1253_0" x1="52.553146" y1="349.607422" x2="63.298218" y2="390.468079" gradientUnits="userSpaceOnUse">
			<stop stop-color="#70D1E7"/>
			<stop offset="1.000000" stop-color="#C4C4C4" stop-opacity="0.000000"/>
		</linearGradient>
		<linearGradient id="paint_linear_731_1270_0" x1="347.485809" y1="0.000000" x2="480.640228" y2="524.886108" gradientUnits="userSpaceOnUse">
			<stop stop-color="#FFFFFF" stop-opacity="0.160784"/>
			<stop offset="1.000000" stop-color="#C4C4C4" stop-opacity="0.000000"/>
		</linearGradient>
		<linearGradient id="paint_linear_731_1271_0" x1="347.218384" y1="0.000092" x2="713.503906" y2="244.837799" gradientUnits="userSpaceOnUse">
			<stop stop-color="#FFFFFF" stop-opacity="0.168627"/>
			<stop offset="1.000000" stop-color="#000000" stop-opacity="0.000000"/>
		</linearGradient>
		<linearGradient id="paint_linear_731_1272_0" x1="343.340332" y1="15.233391" x2="417.343750" y2="224.644287" gradientUnits="userSpaceOnUse">
			<stop stop-color="#FFFFFF" stop-opacity="0.149020"/>
			<stop offset="1.000000" stop-color="#C4C4C4" stop-opacity="0.000000"/>
		</linearGradient>
		<linearGradient id="paint_linear_731_1274_0" x1="479.719971" y1="70.999992" x2="603.870972" y2="401.858032" gradientUnits="userSpaceOnUse">
			<stop stop-color="#FFFFFF" stop-opacity="0.168627"/>
			<stop offset="1.000000" stop-color="#000000" stop-opacity="0.000000"/>
		</linearGradient>
		<linearGradient id="paint_linear_731_1275_0" x1="466.221893" y1="88.921875" x2="489.284485" y2="129.782532" gradientUnits="userSpaceOnUse">
			<stop stop-color="#FFFFFF" stop-opacity="0.560784"/>
			<stop offset="1.000000" stop-color="#C4C4C4" stop-opacity="0.000000"/>
		</linearGradient>
		<linearGradient id="paint_linear_731_1276_0" x1="417.544189" y1="106.841797" x2="425.799561" y2="147.702454" gradientUnits="userSpaceOnUse">
			<stop stop-color="#F9C746" stop-opacity="0.521569"/>
			<stop offset="1.000000" stop-color="#C4C4C4" stop-opacity="0.000000"/>
		</linearGradient>
		<linearGradient id="paint_linear_731_1277_0" x1="464.494568" y1="106.841797" x2="468.425720" y2="147.702454" gradientUnits="userSpaceOnUse">
			<stop stop-color="#84EBE5" stop-opacity="0.619608"/>
			<stop offset="1.000000" stop-color="#C4C4C4" stop-opacity="0.000000"/>
		</linearGradient>
		<linearGradient id="paint_linear_731_1278_0" x1="417.544189" y1="178.527344" x2="425.799561" y2="219.388000" gradientUnits="userSpaceOnUse">
			<stop stop-color="#FFFFFF" stop-opacity="0.560784"/>
			<stop offset="1.000000" stop-color="#C4C4C4" stop-opacity="0.000000"/>
		</linearGradient>
		<linearGradient id="paint_linear_731_1279_0" x1="464.494568" y1="178.527344" x2="468.425720" y2="219.388000" gradientUnits="userSpaceOnUse">
			<stop stop-color="#F47D9E"/>
			<stop offset="1.000000" stop-color="#C4C4C4" stop-opacity="0.000000"/>
		</linearGradient>
		<linearGradient id="paint_linear_731_1280_0" x1="431.760498" y1="142.685547" x2="434.905396" y2="183.546204" gradientUnits="userSpaceOnUse">
			<stop stop-color="#F2C87D"/>
			<stop offset="1.000000" stop-color="#C4C4C4" stop-opacity="0.000000"/>
		</linearGradient>
		<linearGradient id="paint_linear_731_1281_0" x1="481.301147" y1="142.685547" x2="490.866882" y2="183.546204" gradientUnits="userSpaceOnUse">
			<stop stop-color="#FFFFFF" stop-opacity="0.619608"/>
			<stop offset="1.000000" stop-color="#C4C4C4" stop-opacity="0.000000"/>
		</linearGradient>
		<linearGradient id="paint_linear_731_1282_0" x1="397.297699" y1="140.893402" x2="431.329010" y2="183.008575" gradientUnits="userSpaceOnUse">
			<stop stop-color="#F37D9D"/>
			<stop offset="1.000000" stop-color="#C4C4C4" stop-opacity="0.000000"/>
		</linearGradient>
		<linearGradient id="paint_linear_731_1283_0" x1="425.728912" y1="124.763672" x2="436.473999" y2="165.624344" gradientUnits="userSpaceOnUse">
			<stop stop-color="#FFFFFF" stop-opacity="0.580392"/>
			<stop offset="1.000000" stop-color="#C4C4C4" stop-opacity="0.000000"/>
		</linearGradient>
		<linearGradient id="paint_linear_731_1284_0" x1="485.607361" y1="124.763664" x2="491.241974" y2="165.624329" gradientUnits="userSpaceOnUse">
			<stop stop-color="#FFFFFF" stop-opacity="0.450980"/>
			<stop offset="1.000000" stop-color="#C4C4C4" stop-opacity="0.000000"/>
		</linearGradient>
		<linearGradient id="paint_linear_731_1285_0" x1="425.728912" y1="160.607422" x2="436.473999" y2="201.468094" gradientUnits="userSpaceOnUse">
			<stop stop-color="#70D1E7"/>
			<stop offset="1.000000" stop-color="#C4C4C4" stop-opacity="0.000000"/>
		</linearGradient>
		<linearGradient id="paint_linear_731_1289_0" x1="177.477127" y1="16.720093" x2="379.523254" y2="231.850433" gradientUnits="userSpaceOnUse">
			<stop stop-color="#FFFFFF" stop-opacity="0.309804"/>
			<stop offset="1.000000" stop-color="#FFFFFF" stop-opacity="0.000000"/>
		</linearGradient>
		<linearGradient id="paint_linear_731_1290_0" x1="177.394531" y1="-58.999908" x2="652.246521" y2="502.999847" gradientUnits="userSpaceOnUse">
			<stop stop-color="#FFFFFF" stop-opacity="0.309804"/>
			<stop offset="1.000000" stop-color="#FFFFFF" stop-opacity="0.000000"/>
		</linearGradient>
		<linearGradient id="paint_linear_731_1293_0" x1="147.052734" y1="58.961552" x2="203.127228" y2="146.307709" gradientUnits="userSpaceOnUse">
			<stop stop-color="#FFFFFF" stop-opacity="0.309804"/>
			<stop offset="1.000000" stop-color="#FFFFFF" stop-opacity="0.000000"/>
		</linearGradient>
		<linearGradient id="paint_linear_731_1294_0" x1="241.893570" y1="58.961533" x2="353.152405" y2="146.307709" gradientUnits="userSpaceOnUse">
			<stop stop-color="#FFFFFF" stop-opacity="0.309804"/>
			<stop offset="1.000000" stop-color="#FFFFFF" stop-opacity="0.000000"/>
		</linearGradient>
		<linearGradient id="paint_linear_731_1296_0" x1="222.394470" y1="118.961533" x2="274.018585" y2="206.307709" gradientUnits="userSpaceOnUse">
			<stop stop-color="#FFFFFF" stop-opacity="0.309804"/>
			<stop offset="1.000000" stop-color="#FFFFFF" stop-opacity="0.000000"/>
		</linearGradient>
		<linearGradient id="paint_linear_731_1297_0" x1="290.542908" y1="118.961533" x2="342.167023" y2="206.307709" gradientUnits="userSpaceOnUse">
			<stop stop-color="#FFFFFF" stop-opacity="0.309804"/>
			<stop offset="1.000000" stop-color="#FFFFFF" stop-opacity="0.000000"/>
		</linearGradient>
	</defs>
	<path d="M199.771 261.797L13.3184 261.797C7.18848 261.797 2.21973 265.82 2.21973 270.784L2.21973 382.216C2.21973 387.18 7.18848 391.203 13.3184 391.203L199.771 391.203C205.899 391.203 210.869 387.18 210.869 382.216L210.869 270.784C210.869 265.82 205.899 261.797 199.771 261.797ZM13.3184 260C5.96289 260 0 264.828 0 270.784L0 382.216C0 388.172 5.96289 393 13.3184 393L199.771 393C207.126 393 213.088 388.172 213.088 382.216L213.088 270.784C213.088 264.828 207.126 260 199.771 260L13.3184 260Z" fill="url(#paint_linear_731_1242_0)" fill-opacity="1.000000" fill-rule="evenodd"/>
	<path d="M17.2295 281.506C17.2295 279.526 18.9648 277.922 21.1064 277.922L164.985 277.922C167.127 277.922 168.862 279.526 168.862 281.506C168.862 283.485 167.127 285.091 164.985 285.091L21.1064 285.091C18.9648 285.091 17.2295 283.485 17.2295 281.506Z" fill="url(#paint_linear_731_1243_0)" fill-opacity="1.000000" fill-rule="nonzero"/>
	<path d="M17.2295 299.426C17.2295 297.446 18.9648 295.842 21.1064 295.842L67.6299 295.842C69.7715 295.842 71.5068 297.446 71.5068 299.426C71.5068 301.405 69.7715 303.011 67.6299 303.011L21.1064 303.011C18.9648 303.011 17.2295 301.405 17.2295 299.426Z" fill="url(#paint_linear_731_1244_0)" fill-opacity="1.000000" fill-rule="nonzero"/>
	<path d="M78.4014 299.426C78.4014 297.446 80.1367 295.842 82.2783 295.842L100.371 295.842C102.512 295.842 104.248 297.446 104.248 299.426C104.248 301.405 102.512 303.011 100.371 303.011L82.2783 303.011C80.1367 303.011 78.4014 301.405 78.4014 299.426Z" fill="url(#paint_linear_731_1245_0)" fill-opacity="1.000000" fill-rule="nonzero"/>
	<path d="M17.2295 371.111C17.2295 369.132 18.9648 367.527 21.1064 367.527L67.6299 367.527C69.7715 367.527 71.5068 369.132 71.5068 371.111C71.5068 373.091 69.7715 374.696 67.6299 374.696L21.1064 374.696C18.9648 374.696 17.2295 373.091 17.2295 371.111Z" fill="url(#paint_linear_731_1246_0)" fill-opacity="1.000000" fill-rule="nonzero"/>
	<path d="M78.4014 371.111C78.4014 369.132 80.1367 367.527 82.2783 367.527L100.371 367.527C102.512 367.527 104.248 369.132 104.248 371.111C104.248 373.091 102.512 374.696 100.371 374.696L82.2783 374.696C80.1367 374.696 78.4014 373.091 78.4014 371.111Z" fill="url(#paint_linear_731_1247_0)" fill-opacity="1.000000" fill-rule="nonzero"/>
	<path d="M48.2451 335.27C48.2451 333.29 49.9805 331.686 52.1221 331.686L65.0449 331.686C67.1865 331.686 68.9229 333.29 68.9229 335.27C68.9229 337.249 67.1865 338.854 65.0449 338.854L52.1221 338.854C49.9805 338.854 48.2451 337.249 48.2451 335.27Z" fill="url(#paint_linear_731_1248_0)" fill-opacity="1.000000" fill-rule="nonzero"/>
	<path d="M76.6777 335.27C76.6777 333.29 78.4131 331.686 80.5547 331.686L135.694 331.686C137.835 331.686 139.571 333.29 139.571 335.27C139.571 337.249 137.835 338.854 135.694 338.854L80.5547 338.854C78.4131 338.854 76.6777 337.249 76.6777 335.27Z" fill="url(#paint_linear_731_1249_0)" fill-opacity="1.000000" fill-rule="nonzero"/>
	<path d="M17.2295 335.27C17.2295 333.29 18.9648 331.686 21.1064 331.686L39.1992 331.686C41.3398 331.686 43.0762 333.29 43.0762 335.27C43.0762 337.249 41.3398 338.854 39.1992 338.854L21.1064 338.854C18.9648 338.854 17.2295 337.249 17.2295 335.27Z" fill="url(#paint_linear_731_1250_0)" fill-opacity="1.000000" fill-rule="nonzero"/>
	<path d="M17.2295 317.348C17.2295 315.368 18.9648 313.764 21.1064 313.764L84 313.764C86.1406 313.764 87.877 315.368 87.877 317.348C87.877 319.327 86.1406 320.933 84 320.933L21.1064 320.933C18.9648 320.933 17.2295 319.327 17.2295 317.348Z" fill="url(#paint_linear_731_1251_0)" fill-opacity="1.000000" fill-rule="nonzero"/>
	<path d="M93.9072 317.348C93.9072 315.368 95.6426 313.764 97.7842 313.764L127.077 313.764C129.218 313.764 130.954 315.368 130.954 317.348C130.954 319.327 129.218 320.933 127.077 320.933L97.7842 320.933C95.6426 320.933 93.9072 319.327 93.9072 317.348Z" fill="url(#paint_linear_731_1252_0)" fill-opacity="1.000000" fill-rule="nonzero"/>
	<path d="M17.2295 353.191C17.2295 351.212 18.9648 349.607 21.1064 349.607L84 349.607C86.1406 349.607 87.877 351.212 87.877 353.191C87.877 355.171 86.1406 356.776 84 356.776L21.1064 356.776C18.9648 356.776 17.2295 355.171 17.2295 353.191Z" fill="url(#paint_linear_731_1253_0)" fill-opacity="1.000000" fill-rule="nonzero"/>
	<path d="M88.6973 17.0254C88.6973 7.62207 96.9424 0 107.113 0L587.859 0C598.029 0 606.274 7.62207 606.274 17.0254L606.274 344.09C606.274 353.492 598.029 361.115 587.859 361.115L107.113 361.115C96.9424 361.115 88.6973 353.492 88.6973 344.09L88.6973 17.0254Z" fill="url(#paint_linear_731_1270_0)" fill-opacity="1.000000" fill-rule="nonzero"/>
	<path d="M587.592 1.79199L106.846 1.79199C97.7451 1.79199 90.3682 8.6123 90.3682 17.0254L90.3682 344.09C90.3682 352.503 97.7451 359.323 106.846 359.323L587.592 359.323C596.691 359.323 604.068 352.503 604.068 344.09L604.068 17.0254C604.068 8.6123 596.691 1.79199 587.592 1.79199ZM106.846 0C96.6748 0 88.4297 7.62207 88.4297 17.0254L88.4297 344.09C88.4297 353.492 96.6748 361.115 106.846 361.115L587.592 361.115C597.762 361.115 606.007 353.492 606.007 344.09L606.007 17.0254C606.007 7.62207 597.762 0 587.592 0L106.846 0Z" fill="url(#paint_linear_731_1271_0)" fill-opacity="1.000000" fill-rule="evenodd"/>
	<path d="M100.06 33.6025C100.06 23.458 108.955 15.2334 119.929 15.2334L566.752 15.2334C577.725 15.2334 586.621 23.458 586.621 33.6025C586.621 43.748 577.725 51.9717 566.752 51.9717L119.929 51.9717C108.955 51.9717 100.06 43.748 100.06 33.6025Z" fill="url(#paint_linear_731_1272_0)" fill-opacity="1.000000" fill-rule="nonzero"/>
	<path d="M572.946 72.7969L386.494 72.7969C380.364 72.7969 375.396 76.8203 375.396 81.7842L375.396 193.216C375.396 198.18 380.364 202.203 386.494 202.203L572.946 202.203C579.075 202.203 584.045 198.18 584.045 193.216L584.045 81.7842C584.045 76.8203 579.075 72.7969 572.946 72.7969ZM386.494 71C379.139 71 373.176 75.8281 373.176 81.7842L373.176 193.216C373.176 199.172 379.139 204 386.494 204L572.946 204C580.302 204 586.264 199.172 586.264 193.216L586.264 81.7842C586.264 75.8281 580.302 71 572.946 71L386.494 71Z" fill="url(#paint_linear_731_1274_0)" fill-opacity="1.000000" fill-rule="evenodd"/>
	<path d="M390.405 92.5059C390.405 90.5264 392.141 88.9219 394.282 88.9219L538.161 88.9219C540.303 88.9219 542.038 90.5264 542.038 92.5059C542.038 94.4854 540.303 96.0908 538.161 96.0908L394.282 96.0908C392.141 96.0908 390.405 94.4854 390.405 92.5059Z" fill="url(#paint_linear_731_1275_0)" fill-opacity="1.000000" fill-rule="nonzero"/>
	<path d="M390.405 110.426C390.405 108.446 392.141 106.842 394.282 106.842L440.806 106.842C442.947 106.842 444.683 108.446 444.683 110.426C444.683 112.405 442.947 114.011 440.806 114.011L394.282 114.011C392.141 114.011 390.405 112.405 390.405 110.426Z" fill="url(#paint_linear_731_1276_0)" fill-opacity="1.000000" fill-rule="nonzero"/>
	<path d="M451.571 110.426C451.571 108.446 453.307 106.842 455.448 106.842L473.541 106.842C475.682 106.842 477.418 108.446 477.418 110.426C477.418 112.405 475.682 114.011 473.541 114.011L455.448 114.011C453.307 114.011 451.571 112.405 451.571 110.426Z" fill="url(#paint_linear_731_1277_0)" fill-opacity="1.000000" fill-rule="nonzero"/>
	<path d="M390.405 182.111C390.405 180.132 392.141 178.527 394.282 178.527L440.806 178.527C442.947 178.527 444.683 180.132 444.683 182.111C444.683 184.091 442.947 185.696 440.806 185.696L394.282 185.696C392.141 185.696 390.405 184.091 390.405 182.111Z" fill="url(#paint_linear_731_1278_0)" fill-opacity="1.000000" fill-rule="nonzero"/>
	<path d="M451.571 182.111C451.571 180.132 453.307 178.527 455.448 178.527L473.541 178.527C475.682 178.527 477.418 180.132 477.418 182.111C477.418 184.091 475.682 185.696 473.541 185.696L455.448 185.696C453.307 185.696 451.571 184.091 451.571 182.111Z" fill="url(#paint_linear_731_1279_0)" fill-opacity="1.000000" fill-rule="nonzero"/>
	<path d="M421.422 146.27C421.422 144.29 423.157 142.686 425.299 142.686L438.222 142.686C440.363 142.686 442.1 144.29 442.1 146.27C442.1 148.249 440.363 149.854 438.222 149.854L425.299 149.854C423.157 149.854 421.422 148.249 421.422 146.27Z" fill="url(#paint_linear_731_1280_0)" fill-opacity="1.000000" fill-rule="nonzero"/>
	<path d="M449.854 146.27C449.854 144.29 451.59 142.686 453.731 142.686L508.871 142.686C511.012 142.686 512.748 144.29 512.748 146.27C512.748 148.249 511.012 149.854 508.871 149.854L453.731 149.854C451.59 149.854 449.854 148.249 449.854 146.27Z" fill="url(#paint_linear_731_1281_0)" fill-opacity="1.000000" fill-rule="nonzero"/>
	<path d="M390.405 146.27C390.405 144.29 392.141 142.686 394.282 142.686L412.375 142.686C414.516 142.686 416.252 144.29 416.252 146.27C416.252 148.249 414.516 149.854 412.375 149.854L394.282 149.854C392.141 149.854 390.405 148.249 390.405 146.27Z" fill="url(#paint_linear_731_1282_0)" fill-opacity="1.000000" fill-rule="nonzero"/>
	<path d="M390.405 128.348C390.405 126.368 392.141 124.764 394.282 124.764L457.176 124.764C459.316 124.764 461.053 126.368 461.053 128.348C461.053 130.327 459.316 131.933 457.176 131.933L394.282 131.933C392.141 131.933 390.405 130.327 390.405 128.348Z" fill="url(#paint_linear_731_1283_0)" fill-opacity="1.000000" fill-rule="nonzero"/>
	<path d="M467.084 128.348C467.084 126.368 468.819 124.764 470.961 124.764L500.254 124.764C502.395 124.764 504.131 126.368 504.131 128.348C504.131 130.327 502.395 131.933 500.254 131.933L470.961 131.933C468.819 131.933 467.084 130.327 467.084 128.348Z" fill="url(#paint_linear_731_1284_0)" fill-opacity="1.000000" fill-rule="nonzero"/>
	<path d="M390.405 164.191C390.405 162.212 392.141 160.607 394.282 160.607L457.176 160.607C459.316 160.607 461.053 162.212 461.053 164.191C461.053 166.171 459.316 167.776 457.176 167.776L394.282 167.776C392.141 167.776 390.405 166.171 390.405 164.191Z" fill="url(#paint_linear_731_1285_0)" fill-opacity="1.000000" fill-rule="nonzero"/>
	<path d="M135.579 33.8047C135.579 37.1982 132.603 39.9492 128.931 39.9492C125.26 39.9492 122.283 37.1982 122.283 33.8047C122.283 30.4111 125.26 27.6602 128.931 27.6602C132.603 27.6602 135.579 30.4111 135.579 33.8047Z" fill="#FED280" fill-opacity="1.000000" fill-rule="nonzero"/>
	<path d="M158.85 33.8047C158.85 37.1982 155.873 39.9492 152.201 39.9492C148.53 39.9492 145.554 37.1982 145.554 33.8047C145.554 30.4111 148.53 27.6602 152.201 27.6602C155.873 27.6602 158.85 30.4111 158.85 33.8047Z" fill="#8CFEE3" fill-opacity="0.900000" fill-rule="nonzero"/>
	<path d="M182.116 33.8047C182.116 37.1982 179.14 39.9492 175.468 39.9492C171.797 39.9492 168.82 37.1982 168.82 33.8047C168.82 30.4111 171.797 27.6602 175.468 27.6602C179.14 27.6602 182.116 30.4111 182.116 33.8047Z" fill="#FF8DA9" fill-opacity="0.900000" fill-rule="nonzero"/>
	<rect x="111.413086" y="71.000000" rx="13.000000" width="245.538284" height="133.000000" fill="url(#paint_linear_731_1289_0)" fill-opacity="1.000000"/>
	<rect x="111.413086" y="219.000000" rx="13.000000" width="474.851624" height="118.000000" fill="url(#paint_linear_731_1290_0)" fill-opacity="1.000000"/>
	<rect x="128.717773" y="81.000000" rx="6.000000" width="68.144997" height="54.000000" fill="url(#paint_linear_731_1293_0)" fill-opacity="1.000000"/>
	<rect x="205.514648" y="81.000000" rx="6.000000" width="135.208344" height="54.000000" fill="url(#paint_linear_731_1294_0)" fill-opacity="1.000000"/>
	<rect x="205.514648" y="141.000000" rx="6.000000" width="62.736675" height="54.000000" fill="url(#paint_linear_731_1296_0)" fill-opacity="1.000000"/>
	<rect x="273.663086" y="141.000000" rx="6.000000" width="62.736675" height="54.000000" fill="url(#paint_linear_731_1297_0)" fill-opacity="1.000000"/>
	<rect x="128.717773" y="141.000000" rx="4.000000" width="68.144997" height="8.000000" fill="#303262" fill-opacity="0.500000"/>
	<rect x="128.717773" y="172.000000" rx="4.000000" width="68.144997" height="8.000000" fill="#303262" fill-opacity="0.500000"/>
	<rect x="128.717773" y="156.000000" rx="4.000000" width="68.144997" height="8.000000" fill="#303262" fill-opacity="0.500000"/>
	<rect x="128.717773" y="187.000000" rx="4.000000" width="68.144997" height="8.000000" fill="#303262" fill-opacity="0.500000"/>
	<path d="M576.263 370.326C564.718 370.326 555.359 361.673 555.359 351C555.359 340.327 564.718 331.674 576.263 331.674C587.808 331.674 597.167 340.327 597.167 351C597.167 361.673 587.808 370.326 576.263 370.326ZM639 359.742L639 342.258L624.094 338.757C623.001 335.098 621.431 331.623 619.447 328.393L627.311 316.17L613.938 303.806L600.717 311.076C597.223 309.242 593.464 307.791 589.507 306.78L585.719 293L566.807 293L563.02 306.78C559.062 307.791 555.304 309.242 551.81 311.076L538.588 303.806L525.215 316.17L533.078 328.393C531.096 331.623 529.524 335.098 528.432 338.757L513.526 342.258L513.526 359.742L528.432 363.243C529.524 366.902 531.096 370.377 533.078 373.607L525.215 385.83L538.588 398.194L551.81 390.924C555.304 392.757 559.062 394.209 563.02 395.22L566.807 409L585.719 409L589.507 395.22C593.464 394.209 597.223 392.757 600.717 390.924L613.938 398.194L627.311 385.83L619.447 373.607C621.431 370.377 623.001 366.902 624.094 363.243L639 359.742Z" fill="#FCD980" fill-opacity="1.000000" fill-rule="evenodd"/>
</svg>
