<svg width="176.000000" height="84.000000" viewBox="0 0 176 84" fill="none" xmlns="http://www.w3.org/2000/svg" xmlns:xlink="http://www.w3.org/1999/xlink">
	<desc>
			Created with Pixso.
	</desc>
	<defs/>
	<path id="100.000+" d="M18.1442 16.4893Q15.7692 20.2095 15.7692 26.7871Q15.7692 33.4019 18.1442 37.1685Q18.8056 38.2149 19.7103 38.9698Q22.0539 40.9258 26.0299 40.9258Q30.0059 40.9258 32.3496 38.9698Q33.2542 38.2149 33.9157 37.1685Q36.2907 33.4019 36.2907 26.7871Q36.2907 20.2095 33.9157 16.4893Q33.2743 15.4847 32.4043 14.7513Q30.0526 12.769 26.0299 12.769Q22.0073 12.769 19.6555 14.7513Q18.7855 15.4847 18.1442 16.4893ZM42.6922 16.4893Q40.3172 20.2095 40.3172 26.7871Q40.3172 33.4019 42.6922 37.1685Q43.3536 38.2149 44.2583 38.9698Q46.6019 40.9258 50.5779 40.9258Q54.5539 40.9258 56.8976 38.9698Q57.8022 38.2149 58.4637 37.1685Q60.8387 33.4019 60.8387 26.7871Q60.8387 20.2095 58.4637 16.4893Q57.8223 15.4847 56.9523 14.7513Q54.6005 12.769 50.5779 12.769Q46.5553 12.769 44.2035 14.7513Q43.3335 15.4847 42.6922 16.4893ZM77.1202 16.4893Q74.7452 20.2095 74.7452 26.7871Q74.7452 33.4019 77.1202 37.1685Q77.7816 38.2149 78.6862 38.9698Q81.0299 40.9258 85.0059 40.9258Q88.9819 40.9258 91.3256 38.9698Q92.2302 38.2149 92.8917 37.1685Q95.2667 33.4019 95.2667 26.7871Q95.2667 20.2095 92.8917 16.4893Q92.2503 15.4847 91.3803 14.7513Q89.0285 12.769 85.0059 12.769Q80.9833 12.769 78.6315 14.7513Q77.7615 15.4847 77.1202 16.4893ZM101.668 16.4893Q99.2932 20.2095 99.2932 26.7871Q99.2932 33.4019 101.668 37.1685Q102.33 38.2149 103.234 38.9698Q105.578 40.9258 109.554 40.9258Q113.53 40.9258 115.874 38.9698Q116.778 38.2149 117.44 37.1685Q119.815 33.4019 119.815 26.7871Q119.815 20.2095 117.44 16.4893Q116.798 15.4847 115.928 14.7513Q113.577 12.769 109.554 12.769Q105.531 12.769 103.18 14.7513Q102.31 15.4847 101.668 16.4893ZM126.216 16.4893Q123.841 20.2095 123.841 26.7871Q123.841 33.4019 126.216 37.1685Q126.878 38.2149 127.782 38.9698Q130.126 40.9258 134.102 40.9258Q138.078 40.9258 140.422 38.9698Q141.326 38.2149 141.988 37.1685Q144.363 33.4019 144.363 26.7871Q144.363 20.2095 141.988 16.4893Q141.346 15.4847 140.476 14.7513Q138.125 12.769 134.102 12.769Q130.079 12.769 127.728 14.7513Q126.858 15.4847 126.216 16.4893ZM1.36377 13.2979L1.36377 18.1963L5.05615 18.1963L5.05615 41L10.5298 41L10.5298 13.2979L1.36377 13.2979ZM30.6872 22.0557Q31.049 23.9761 31.049 26.7871Q31.049 29.6724 30.7057 31.6299Q30.3624 33.5874 29.2584 34.7842Q29.122 34.932 28.9701 35.0616Q27.892 35.981 26.0299 35.981Q24.1679 35.981 23.0898 35.0616Q22.9378 34.932 22.8014 34.7842Q21.6974 33.5874 21.3541 31.6299Q21.0109 29.6724 21.0109 26.7871Q21.0109 23.9761 21.3727 22.0557Q21.7345 20.1353 22.82 18.9199Q22.9682 18.7539 23.1358 18.6106Q24.1956 17.7046 26.0299 17.7046Q27.8643 17.7046 28.924 18.6106Q29.0916 18.7539 29.2399 18.9199Q30.3253 20.1353 30.6872 22.0557ZM55.2351 22.0557Q55.597 23.9761 55.597 26.7871Q55.597 29.6724 55.2537 31.6299Q54.9104 33.5874 53.8064 34.7842Q53.67 34.932 53.5181 35.0616Q52.4399 35.981 50.5779 35.981Q48.7159 35.981 47.6378 35.0616Q47.4858 34.932 47.3494 34.7842Q46.2454 33.5874 45.9021 31.6299Q45.5589 29.6724 45.5589 26.7871Q45.5589 23.9761 45.9207 22.0557Q46.2825 20.1353 47.368 18.9199Q47.5162 18.7539 47.6838 18.6106Q48.7436 17.7046 50.5779 17.7046Q52.4123 17.7046 53.472 18.6106Q53.6396 18.7539 53.7879 18.9199Q54.8733 20.1353 55.2351 22.0557ZM89.6631 22.0557Q90.025 23.9761 90.025 26.7871Q90.025 29.6724 89.6817 31.6299Q89.3384 33.5874 88.2344 34.7842Q88.098 34.932 87.9461 35.0616Q86.8679 35.981 85.0059 35.981Q83.1439 35.981 82.0658 35.0616Q81.9138 34.932 81.7774 34.7842Q80.6734 33.5874 80.3301 31.6299Q79.9869 29.6724 79.9869 26.7871Q79.9869 23.9761 80.3487 22.0557Q80.7105 20.1353 81.796 18.9199Q81.9442 18.7539 82.1118 18.6106Q83.1716 17.7046 85.0059 17.7046Q86.8403 17.7046 87.9 18.6106Q88.0676 18.7539 88.2159 18.9199Q89.3013 20.1353 89.6631 22.0557ZM114.211 22.0557Q114.573 23.9761 114.573 26.7871Q114.573 29.6724 114.23 31.6299Q113.886 33.5874 112.782 34.7842Q112.646 34.932 112.494 35.0616Q111.416 35.981 109.554 35.981Q107.692 35.981 106.614 35.0616Q106.462 34.932 106.325 34.7842Q105.221 33.5874 104.878 31.6299Q104.535 29.6724 104.535 26.7871Q104.535 23.9761 104.897 22.0557Q105.259 20.1353 106.344 18.9199Q106.492 18.7539 106.66 18.6106Q107.72 17.7046 109.554 17.7046Q111.388 17.7046 112.448 18.6106Q112.616 18.7539 112.764 18.9199Q113.849 20.1353 114.211 22.0557ZM138.759 22.0557Q139.121 23.9761 139.121 26.7871Q139.121 29.6724 138.778 31.6299Q138.434 33.5874 137.33 34.7842Q137.194 34.932 137.042 35.0616Q135.964 35.981 134.102 35.981Q132.24 35.981 131.162 35.0616Q131.01 34.932 130.873 34.7842Q129.769 33.5874 129.426 31.6299Q129.083 29.6724 129.083 26.7871Q129.083 23.9761 129.445 22.0557Q129.807 20.1353 130.892 18.9199Q131.04 18.7539 131.208 18.6106Q132.268 17.7046 134.102 17.7046Q135.936 17.7046 136.996 18.6106Q137.164 18.7539 137.312 18.9199Q138.397 20.1353 138.759 22.0557ZM161.693 29.793L168.874 29.793L168.874 25.1543L161.693 25.1543L161.693 17.7788L156.674 17.7788L156.674 25.1543L149.493 25.1543L149.493 29.793L156.674 29.793L156.674 37.1592L161.693 37.1592L161.693 29.793ZM66.0558 40.8315Q66.8195 41.269 67.8339 41.269Q68.7663 41.269 69.4808 40.8746Q69.8399 40.6763 70.144 40.3784Q70.5555 39.9752 70.7826 39.4864Q71.0624 38.8842 71.0624 38.1519Q71.0624 37.389 70.763 36.7714Q70.538 36.3074 70.144 35.9253Q69.8399 35.6274 69.4808 35.4292Q68.7663 35.0347 67.8339 35.0347Q66.8195 35.0347 66.0558 35.4722Q65.7299 35.6589 65.4497 35.9253Q65.0431 36.3156 64.8147 36.7914Q64.5219 37.4014 64.5219 38.1519Q64.5219 38.8721 64.7954 39.4666Q65.0256 39.9671 65.4497 40.3784Q65.7299 40.6448 66.0558 40.8315Z" fill="#282938" fill-opacity="1.000000" fill-rule="evenodd"/>
	<g opacity="0.700000">
		<path id="Finsweet Users" d="M9.63605 65.725Q9.82357 65.8086 10.0484 65.8086Q10.2396 65.8086 10.4038 65.742Q10.5818 65.6699 10.7281 65.5195Q10.8556 65.3884 10.9253 65.2316Q11.0093 65.0426 11.0093 64.8164Q11.0093 64.5766 10.9167 64.3805Q10.8479 64.2348 10.7281 64.1133Q10.5818 63.9629 10.4038 63.8908Q10.2396 63.8242 10.0484 63.8242Q9.82357 63.8242 9.63605 63.9078Q9.47493 63.9797 9.34134 64.1133Q9.21616 64.2385 9.14593 64.3893Q9.05619 64.5819 9.05619 64.8164Q9.05619 65.0375 9.13748 65.2229Q9.20844 65.3848 9.34134 65.5195Q9.47493 65.6531 9.63605 65.725ZM7.53516 66.0312L7.53516 64.8477L1.23047 64.8477L1.23047 76L2.6875 76L2.6875 70.9766L6.625 70.9766L6.625 69.793L2.6875 69.793L2.6875 66.0312L7.53516 66.0312ZM76.3043 71.9023L76.3043 64.8477L74.8472 64.8477L74.8472 71.8867Q74.8472 73.2812 75.398 74.2344Q75.7404 74.8204 76.2332 75.2218Q76.5387 75.4706 76.9019 75.6484Q77.855 76.1133 79.0386 76.1133Q80.2222 76.1133 81.1753 75.6484Q81.5438 75.4687 81.8533 75.2166Q82.3444 74.8166 82.6871 74.2344Q83.2496 73.2812 83.2496 71.8867L83.2496 64.8477L81.7925 64.8477L81.7925 71.9023Q81.7925 73.3906 81.0621 74.1133Q80.9619 74.2123 80.8513 74.2977Q80.1589 74.832 79.0543 74.832Q77.9254 74.832 77.2253 74.2841Q77.1235 74.2045 77.0308 74.1133Q76.3043 73.3906 76.3043 71.9023ZM66.5598 73.6016L66.5598 68.4336L68.8489 68.4336L68.8489 67.2305L66.5598 67.2305L66.5598 65.0234L65.1028 65.0234L65.1028 67.2305L63.9661 67.2305L63.9661 68.4336L65.1028 68.4336L65.1028 73.6016Q65.1028 74.8789 65.7122 75.4414Q66.3215 76 67.5364 76L68.8489 76L68.8489 74.7695L67.7747 74.7695Q67.1028 74.7695 66.8293 74.5039Q66.5598 74.2383 66.5598 73.6016ZM19.5523 67.6081Q18.6972 67.0703 17.5039 67.0703Q16.7604 67.0703 16.1194 67.3267Q15.9892 67.3788 15.8633 67.4414Q15.4009 67.6702 15.0583 68.0171Q14.851 68.2271 14.6875 68.4805L14.6875 67.2305L13.2305 67.2305L13.2305 76L14.6875 76L14.6875 71.1523Q14.6875 69.7773 15.3672 69.0586Q15.5504 68.8638 15.7679 68.7215Q16.3575 68.3359 17.1992 68.3359Q18.0683 68.3359 18.6566 68.7424Q18.8377 68.8676 18.9922 69.0312L18.9947 69.0339Q19.6484 69.729 19.6484 71.0391L19.6484 76L21.0898 76L21.0898 70.832Q21.0898 69.1733 20.2695 68.2219Q20.1877 68.1269 20.0977 68.0391Q19.8448 67.7921 19.5523 67.6081ZM105.968 67.8902Q105.632 68.215 105.408 68.6562L105.408 67.2305L103.95 67.2305L103.95 76L105.408 76L105.408 71.2305Q105.408 69.7948 106.123 69.1351Q106.731 68.5742 107.857 68.5742L108.24 68.5742L108.24 67.0703Q107.216 67.0703 106.501 67.4883Q106.206 67.66 105.968 67.8902ZM24.7673 75.8008Q25.5681 76.1445 26.5759 76.1445Q27.5213 76.1445 28.2478 75.8164Q28.9287 75.5089 29.3214 74.9853Q29.3478 74.9502 29.3728 74.9141Q29.5513 74.6576 29.6506 74.3735Q29.7752 74.0171 29.7752 73.6172Q29.7609 72.8884 29.407 72.412Q29.3721 72.3649 29.3338 72.3203Q29.0976 72.0427 28.8077 71.8433Q28.5796 71.6865 28.3181 71.5781Q27.7283 71.3281 26.783 71.0703Q26.033 70.8633 25.6072 70.6953Q25.1853 70.5273 24.9041 70.25Q24.8044 70.1503 24.7401 70.0315Q24.6228 69.8151 24.6228 69.5352Q24.6228 69.2994 24.7104 69.1027Q24.8246 68.8464 25.0877 68.6562Q25.5525 68.3203 26.3377 68.3203Q27.181 68.3203 27.6841 68.7341Q27.6867 68.7362 27.6892 68.7383Q27.8972 68.9092 28.0273 69.1267Q28.2125 69.4361 28.24 69.8398L29.697 69.8398Q29.6535 68.9998 29.254 68.3949Q29.0442 68.0771 28.7361 67.8242Q28.6983 67.7932 28.6595 67.7635Q27.78 67.0898 26.3845 67.0898Q25.4392 67.0898 24.7009 67.418Q23.9674 67.7418 23.569 68.3035L23.5681 68.3047Q23.3464 68.6155 23.2481 68.9614Q23.1697 69.2371 23.1697 69.5352Q23.1697 70.3208 23.5455 70.8279Q23.5752 70.868 23.6072 70.9062Q23.8703 71.216 24.1946 71.4355Q24.4142 71.5841 24.6619 71.6914Q25.2791 71.9531 26.2556 72.207Q27.3298 72.4805 27.8416 72.7617Q28.1007 72.9022 28.2286 73.1198Q28.3533 73.3319 28.3533 73.6172Q28.3533 73.8405 28.2765 74.0332Q28.1612 74.3226 27.8728 74.543Q27.3923 74.9102 26.5603 74.9102Q25.6658 74.9102 25.1111 74.4961Q24.7901 74.2525 24.6349 73.9293Q24.5239 73.6979 24.4978 73.4258L22.9939 73.4258Q23.0224 73.9099 23.2037 74.3277Q23.3208 74.5976 23.5017 74.8398Q23.5329 74.8813 23.5657 74.9215Q24.0204 75.4801 24.7673 75.8008ZM52.8956 72.1602Q52.9425 71.6953 52.9425 71.2812Q52.9425 70.1821 52.5089 69.2949Q52.4678 69.2109 52.4229 69.1289Q52.1917 68.7047 51.873 68.3617Q51.4757 67.9341 50.9425 67.6328Q50.9062 67.6122 50.8695 67.5924Q49.938 67.0898 48.7354 67.0898Q47.4906 67.0898 46.526 67.6098Q46.4978 67.625 46.4698 67.6406Q46.0771 67.8613 45.7539 68.1577Q45.2703 68.6014 44.9425 69.2148Q44.3995 70.2383 44.3995 71.6016Q44.3995 72.9609 44.9581 73.9922Q45.3062 74.6303 45.8158 75.089Q46.1297 75.3715 46.505 75.5859Q46.6457 75.6658 46.7918 75.7342Q47.6675 76.1445 48.7354 76.1445Q50.1566 76.1445 51.1554 75.495Q51.2603 75.4269 51.3604 75.3516Q51.9067 74.9408 52.2644 74.4044Q52.5972 73.9051 52.7667 73.2969L51.2003 73.2969Q51.0654 73.6811 50.8279 73.9851Q50.6114 74.2622 50.3097 74.4727Q49.6808 74.9102 48.7354 74.9102Q48.0289 74.9102 47.4516 74.637Q47.0873 74.4647 46.7745 74.1836Q46.6158 74.0403 46.4852 73.8748Q45.9536 73.2013 45.8878 72.1602L52.8956 72.1602ZM62.8156 72.1602Q62.8625 71.6953 62.8625 71.2812Q62.8625 70.1821 62.4289 69.2949Q62.3878 69.2109 62.3429 69.1289Q62.1117 68.7047 61.793 68.3617Q61.3957 67.9341 60.8625 67.6328Q60.8262 67.6122 60.7895 67.5924Q59.858 67.0898 58.6554 67.0898Q57.4106 67.0898 56.446 67.6098Q56.4178 67.625 56.3898 67.6406Q55.9971 67.8613 55.6739 68.1577Q55.1903 68.6014 54.8625 69.2148Q54.3195 70.2383 54.3195 71.6016Q54.3195 72.9609 54.8781 73.9922Q55.2262 74.6303 55.7358 75.089Q56.0497 75.3715 56.425 75.5859Q56.5657 75.6658 56.7118 75.7342Q57.5875 76.1445 58.6554 76.1445Q60.0766 76.1445 61.0754 75.495Q61.1803 75.4269 61.2804 75.3516Q61.8267 74.9408 62.1844 74.4044Q62.5172 73.9051 62.6867 73.2969L61.1203 73.2969Q60.9854 73.6811 60.7479 73.9851Q60.5314 74.2622 60.2297 74.4727Q59.6008 74.9102 58.6554 74.9102Q57.9489 74.9102 57.3716 74.637Q57.0073 74.4647 56.6945 74.1836Q56.5358 74.0403 56.4052 73.8748Q55.8736 73.2013 55.8078 72.1602L62.8156 72.1602ZM86.9753 75.8008Q87.7761 76.1445 88.7839 76.1445Q89.7293 76.1445 90.4558 75.8164Q91.1367 75.5089 91.5294 74.9853Q91.5558 74.9502 91.5808 74.9141Q91.7593 74.6576 91.8586 74.3735Q91.9832 74.0171 91.9832 73.6172Q91.9689 72.8884 91.615 72.412Q91.5801 72.3649 91.5418 72.3203Q91.3056 72.0427 91.0157 71.8433Q90.7876 71.6865 90.5261 71.5781Q89.9363 71.3281 88.991 71.0703Q88.241 70.8633 87.8152 70.6953Q87.3933 70.5273 87.1121 70.25Q87.0124 70.1503 86.9481 70.0315Q86.8308 69.8151 86.8308 69.5352Q86.8308 69.2994 86.9184 69.1027Q87.0326 68.8464 87.2957 68.6562Q87.7605 68.3203 88.5457 68.3203Q89.389 68.3203 89.8921 68.7341L89.8972 68.7383Q90.1052 68.9092 90.2354 69.1267Q90.4205 69.4361 90.448 69.8398L91.905 69.8398Q91.8615 68.9998 91.462 68.3949Q91.2522 68.0771 90.9441 67.8242Q90.9063 67.7932 90.8676 67.7635Q89.988 67.0898 88.5925 67.0898Q87.6472 67.0898 86.9089 67.418Q86.1754 67.7418 85.777 68.3035L85.7761 68.3047Q85.5544 68.6155 85.4561 68.9614Q85.3777 69.2371 85.3777 69.5352Q85.3777 70.3208 85.7535 70.8279Q85.7832 70.868 85.8152 70.9062Q86.0783 71.216 86.4026 71.4355Q86.6222 71.5841 86.8699 71.6914Q87.4871 71.9531 88.4636 72.207Q89.5378 72.4805 90.0496 72.7617Q90.3087 72.9022 90.4366 73.1198Q90.5613 73.3319 90.5613 73.6172Q90.5613 73.8405 90.4845 74.0332Q90.3692 74.3226 90.0808 74.543Q89.6003 74.9102 88.7683 74.9102Q87.8738 74.9102 87.3191 74.4961Q86.9981 74.2525 86.8429 73.9293Q86.7319 73.6979 86.7058 73.4258L85.2019 73.4258Q85.2304 73.9099 85.4117 74.3277Q85.5288 74.5976 85.7097 74.8398Q85.741 74.8813 85.7737 74.9215Q86.2284 75.4801 86.9753 75.8008ZM101.984 72.1602Q102.03 71.6953 102.03 71.2812Q102.03 70.1821 101.597 69.2949Q101.556 69.2109 101.511 69.1289Q101.28 68.7047 100.961 68.3617Q100.564 67.9341 100.03 67.6328Q99.9942 67.6122 99.9575 67.5924Q99.026 67.0898 97.8234 67.0898Q96.5786 67.0898 95.614 67.6098Q95.5858 67.625 95.5578 67.6406Q95.1651 67.8613 94.8419 68.1577Q94.3583 68.6014 94.0305 69.2148Q93.4875 70.2383 93.4875 71.6016Q93.4875 72.9609 94.0461 73.9922Q94.3942 74.6303 94.9038 75.089Q95.2177 75.3715 95.593 75.5859Q95.7337 75.6658 95.8798 75.7342Q96.7555 76.1445 97.8234 76.1445Q99.2446 76.1445 100.243 75.495Q100.348 75.4269 100.448 75.3516Q100.995 74.9408 101.352 74.4044Q101.685 73.9051 101.855 73.2969L100.288 73.2969Q100.153 73.6811 99.9159 73.9851Q99.6994 74.2622 99.3977 74.4727Q98.7688 74.9102 97.8234 74.9102Q97.1169 74.9102 96.5396 74.637Q96.1753 74.4647 95.8625 74.1836Q95.7038 74.0403 95.5732 73.8748Q95.0416 73.2013 94.9758 72.1602L101.984 72.1602ZM111.215 75.8008Q112.016 76.1445 113.024 76.1445Q113.969 76.1445 114.696 75.8164Q115.377 75.5089 115.769 74.9853Q115.796 74.9502 115.821 74.9141Q115.999 74.6576 116.099 74.3735Q116.223 74.0171 116.223 73.6172Q116.209 72.8884 115.855 72.412Q115.82 72.3649 115.782 72.3203Q115.546 72.0427 115.256 71.8433Q115.028 71.6865 114.766 71.5781Q114.176 71.3281 113.231 71.0703Q112.481 70.8633 112.055 70.6953Q111.633 70.5273 111.352 70.25Q111.252 70.1503 111.188 70.0315Q111.071 69.8151 111.071 69.5352Q111.071 69.2994 111.158 69.1027Q111.273 68.8464 111.536 68.6562Q112.001 68.3203 112.786 68.3203Q113.629 68.3203 114.132 68.7341L114.137 68.7383Q114.345 68.9092 114.475 69.1267Q114.66 69.4361 114.688 69.8398L116.145 69.8398Q116.102 68.9998 115.702 68.3949Q115.492 68.0771 115.184 67.8242Q115.146 67.7932 115.108 67.7635Q114.228 67.0898 112.833 67.0898Q111.887 67.0898 111.149 67.418Q110.415 67.7418 110.017 68.3035L110.016 68.3047Q109.794 68.6155 109.696 68.9614Q109.618 69.2371 109.618 69.5352Q109.618 70.3208 109.994 70.8279Q110.023 70.868 110.055 70.9062Q110.318 71.216 110.643 71.4355Q110.862 71.5841 111.11 71.6914Q111.727 71.9531 112.704 72.207Q113.778 72.4805 114.29 72.7617Q114.549 72.9022 114.677 73.1198Q114.801 73.3319 114.801 73.6172Q114.801 73.8405 114.725 74.0332Q114.609 74.3226 114.321 74.543Q113.84 74.9102 113.008 74.9102Q112.114 74.9102 111.559 74.4961Q111.238 74.2525 111.083 73.9293Q110.972 73.6979 110.946 73.4258L109.442 73.4258Q109.47 73.9099 109.652 74.3277Q109.769 74.5976 109.95 74.8398Q109.981 74.8813 110.014 74.9215Q110.468 75.4801 111.215 75.8008ZM10.7515 76L10.7515 67.2305L9.29447 67.2305L9.29447 76L10.7515 76ZM40.7678 76L43.5022 67.2305L42.0647 67.2305L40.0803 74.6094L37.9514 67.2305L36.4631 67.2305L34.2873 74.5938L32.2717 67.2305L30.7834 67.2305L33.5373 76L35.0412 76L37.1506 69.0391L39.2639 76L40.7678 76ZM51.0714 69.5469Q51.4386 70.1445 51.4386 70.9766L45.9034 70.9766Q45.9973 69.941 46.5442 69.2808Q46.6574 69.1441 46.7901 69.0234Q47.0991 68.7439 47.46 68.5755Q48.0069 68.3203 48.6729 68.3203Q49.3482 68.3203 49.9201 68.5634Q49.9967 68.5959 50.0714 68.6328Q50.3907 68.7905 50.6423 69.0217Q50.8895 69.2488 51.0714 69.5469ZM60.9914 69.5469Q61.3586 70.1445 61.3586 70.9766L55.8234 70.9766Q55.9173 69.941 56.4642 69.2808Q56.5774 69.1441 56.7101 69.0234Q57.0191 68.7439 57.38 68.5755Q57.9269 68.3203 58.5929 68.3203Q59.2682 68.3203 59.8401 68.5634Q59.9167 68.5959 59.9914 68.6328Q60.3107 68.7905 60.5623 69.0217Q60.8095 69.2488 60.9914 69.5469ZM100.159 69.5469Q100.527 70.1445 100.527 70.9766L94.9914 70.9766Q95.0853 69.941 95.6322 69.2808Q95.7454 69.1441 95.8781 69.0234Q96.1871 68.7439 96.548 68.5755Q97.0949 68.3203 97.7609 68.3203Q98.4362 68.3203 99.0081 68.5634Q99.0847 68.5959 99.1594 68.6328Q99.4787 68.7905 99.7303 69.0217Q99.9775 69.2488 100.159 69.5469Z" fill="#282938" fill-opacity="1.000000" fill-rule="evenodd"/>
	</g>
</svg>
