<svg width="136.148438" height="32.000000" viewBox="0 0 136.148 32" fill="none" xmlns="http://www.w3.org/2000/svg" xmlns:xlink="http://www.w3.org/1999/xlink">
	<desc>
			Created with Pixso.
	</desc>
	<defs>
		<clipPath id="clip904_1053">
			<rect id="Logo 2" width="136.148651" height="32.000000" fill="white" fill-opacity="0"/>
		</clipPath>
	</defs>
	<rect id="Logo 2" width="136.148651" height="32.000000" fill="#FFFFFF" fill-opacity="0"/>
	<g clip-path="url(#clip904_1053)">
		<path id="Vector" d="M32.9688 7.80566L36.0908 7.80566L36.0908 22.9678L32.9688 22.9678L32.9688 7.80566Z" fill="#282938" fill-opacity="1.000000" fill-rule="nonzero"/>
		<path id="Vector" d="M37.8398 17.7744C37.8398 16.6836 38.1602 15.6172 38.7627 14.7109C39.3643 13.8037 40.2197 13.0977 41.2197 12.6816C42.2197 12.2656 43.3203 12.1582 44.3809 12.374C45.4414 12.5889 46.415 13.1172 47.1777 13.8906C47.9414 14.6641 48.459 15.6484 48.666 16.7188C48.874 17.79 48.7607 18.8984 48.3428 19.9043C47.9238 20.9102 47.2188 21.7686 46.3164 22.3701C45.4141 22.9717 44.3545 23.2891 43.2725 23.2832C42.5547 23.2881 41.8428 23.1494 41.1797 22.874C40.5156 22.5996 39.9131 22.1934 39.4072 21.6797C38.9014 21.167 38.502 20.5576 38.2324 19.8867C37.9629 19.2158 37.8301 18.498 37.8398 17.7744ZM45.666 17.7744C45.6533 17.3037 45.5039 16.8477 45.2363 16.4629C44.9678 16.0771 44.5928 15.7812 44.1592 15.6094C43.7236 15.4375 43.249 15.3994 42.793 15.499C42.3369 15.5977 41.9199 15.8311 41.5947 16.168C41.2686 16.5049 41.0488 16.9307 40.9619 17.3936C40.875 17.8555 40.9258 18.333 41.1074 18.7666C41.2891 19.2002 41.5928 19.5703 41.9814 19.8301C42.3701 20.0908 42.8262 20.2295 43.293 20.2295C43.6104 20.2354 43.9268 20.1758 44.2197 20.0537C44.5137 19.9316 44.7793 19.749 45 19.5186C45.2207 19.2881 45.3916 19.0146 45.5029 18.7139C45.6143 18.4141 45.6621 18.0938 45.6455 17.7744L45.666 17.7744Z" fill="#282938" fill-opacity="1.000000" fill-rule="nonzero"/>
		<path id="Vector" d="M61.0586 12.5811L61.0586 22.4541C61.0586 25.9375 58.3525 27.417 55.6152 27.417C54.6494 27.4971 53.6816 27.3037 52.8193 26.8594C51.9561 26.4141 51.2344 25.7354 50.7344 24.8994L53.3672 23.3672C53.5801 23.8008 53.9199 24.1592 54.3398 24.3936C54.7607 24.627 55.2412 24.7266 55.7197 24.6787C56.0234 24.7168 56.333 24.6865 56.624 24.5898C56.915 24.4932 57.1816 24.333 57.4043 24.1201C57.627 23.9072 57.8008 23.6484 57.9121 23.3604C58.0244 23.0723 58.0713 22.7627 58.0508 22.4541L58.0508 21.499C57.6875 21.9434 57.2266 22.2959 56.7041 22.5293C56.1816 22.7627 55.6133 22.8701 55.043 22.8428C53.6621 22.8428 52.3389 22.29 51.3633 21.3057C50.3867 20.3223 49.8389 18.9873 49.8389 17.5957C49.8389 16.2051 50.3867 14.8701 51.3633 13.8867C52.3389 12.9023 53.6621 12.3496 55.043 12.3496C55.6133 12.3223 56.1816 12.4297 56.7041 12.6631C57.2266 12.8965 57.6875 13.249 58.0508 13.6934L58.0508 12.6436L61.0586 12.5811ZM58.0508 17.5645C58.0713 17.0625 57.9424 16.5664 57.6816 16.1387C57.4199 15.7109 57.0371 15.3711 56.583 15.165C56.1289 14.958 55.624 14.8926 55.1328 14.9775C54.6416 15.0625 54.1865 15.2939 53.8262 15.6416C53.4668 15.9893 53.2188 16.4375 53.1133 16.9287C53.0078 17.4199 53.0508 17.9316 53.2363 18.3975C53.4229 18.8643 53.7422 19.2637 54.1543 19.5449C54.5674 19.8271 55.0547 19.9775 55.5527 19.9785C55.8779 20.002 56.2041 19.9561 56.5107 19.8447C56.8184 19.7334 57.0977 19.5586 57.333 19.3311C57.5684 19.1035 57.7539 18.8281 57.8779 18.5244C58.001 18.2197 58.0605 17.8936 58.0508 17.5645Z" fill="#282938" fill-opacity="1.000000" fill-rule="nonzero"/>
		<path id="Vector" d="M62.8174 17.7744C62.8174 16.6846 63.1387 15.6191 63.7393 14.7129C64.3398 13.8066 65.1943 13.1006 66.1934 12.6836C67.1924 12.2676 68.291 12.1592 69.3516 12.3721C70.4121 12.5859 71.3857 13.1113 72.1494 13.8828C72.9131 14.6543 73.4326 15.6367 73.6426 16.7061C73.8516 17.7754 73.7422 18.8828 73.3271 19.8896C72.9121 20.8955 72.21 21.7559 71.3096 22.3594C70.4102 22.9639 69.3525 23.2852 68.2715 23.2832C67.5527 23.29 66.8389 23.1523 66.1738 22.8779C65.5078 22.6035 64.9033 22.1973 64.3955 21.6846C63.8877 21.1719 63.4863 20.5615 63.2158 19.8896C62.9443 19.2188 62.8096 18.499 62.8174 17.7744ZM70.6445 17.7744C70.6318 17.3037 70.4824 16.8467 70.2139 16.4619C69.9453 16.0762 69.5693 15.7793 69.1348 15.6084C68.6992 15.4375 68.2236 15.3994 67.7676 15.5C67.3115 15.5996 66.8945 15.834 66.5693 16.1719C66.2441 16.5098 66.0244 16.9365 65.9395 17.3994C65.8535 17.8623 65.9062 18.3408 66.0889 18.7744C66.2715 19.207 66.5771 19.5762 66.9678 19.835C67.3574 20.0947 67.8145 20.2314 68.2822 20.2295C68.5996 20.2354 68.915 20.1758 69.209 20.0537C69.5029 19.9316 69.7676 19.749 69.9883 19.5186C70.21 19.2881 70.3809 19.0146 70.4922 18.7148C70.6025 18.4141 70.6514 18.0938 70.6338 17.7744L70.6445 17.7744Z" fill="#282938" fill-opacity="1.000000" fill-rule="nonzero"/>
		<path id="Vector" d="M75.1719 9.79883C75.1719 9.42969 75.2803 9.06934 75.4844 8.76172C75.6875 8.4541 75.9766 8.21484 76.3154 8.07422C76.6543 7.93262 77.0264 7.89551 77.3857 7.96777C77.7451 8.04004 78.0752 8.21777 78.334 8.47852C78.5938 8.74023 78.7695 9.07227 78.8418 9.43457C78.9131 9.79688 78.876 10.1729 78.7363 10.5137C78.5957 10.8555 78.3584 11.1475 78.0537 11.3525C77.749 11.5576 77.3906 11.667 77.0244 11.667C76.5352 11.6611 76.0664 11.4629 75.7207 11.1143C75.374 10.7646 75.1777 10.293 75.1719 9.79883ZM75.4736 12.5801L78.5957 12.5801L78.5957 22.9678L75.4736 22.9678L75.4736 12.5801Z" fill="#282938" fill-opacity="1.000000" fill-rule="nonzero"/>
		<path id="Vector" d="M91.96 17.7734C91.9951 18.4648 91.8945 19.1553 91.6631 19.8066C91.4326 20.458 91.0762 21.0576 90.6143 21.5693C90.1533 22.0811 89.5957 22.4961 88.9746 22.79C88.3535 23.084 87.6816 23.252 86.9961 23.2822C86.4141 23.3213 85.8311 23.2275 85.291 23.0078C84.75 22.7881 84.2656 22.4482 83.873 22.0127L83.873 27.1436L80.751 27.1436L80.751 12.5801L83.873 12.5801L83.873 13.5557C84.2666 13.1221 84.751 12.7832 85.291 12.5654C85.832 12.3477 86.415 12.2559 86.9961 12.2969C87.6777 12.3281 88.3486 12.4941 88.9678 12.7861C89.5869 13.0781 90.1416 13.4902 90.6025 13.999C91.0635 14.5068 91.4209 15.1025 91.6543 15.75C91.8867 16.3984 91.9902 17.0859 91.96 17.7734ZM88.8379 17.7734C88.8252 17.2861 88.6709 16.8135 88.3936 16.415C88.1152 16.0156 87.7275 15.708 87.2773 15.5303C86.8262 15.3535 86.334 15.3135 85.8613 15.417C85.3887 15.5205 84.957 15.7617 84.6201 16.1113C84.2832 16.4619 84.0566 16.9033 83.9678 17.3828C83.8789 17.8623 83.9326 18.3574 84.1221 18.8057C84.3115 19.2539 84.627 19.6367 85.0312 19.9053C85.4346 20.1729 85.9082 20.3145 86.3916 20.3135C86.7236 20.3271 87.0537 20.2705 87.3613 20.1475C87.6699 20.0234 87.9482 19.8359 88.1787 19.5957C88.4102 19.3564 88.5889 19.0693 88.7012 18.7559C88.8145 18.4414 88.8613 18.1074 88.8379 17.7734Z" fill="#282938" fill-opacity="1.000000" fill-rule="nonzero"/>
		<path id="Vector" d="M101.462 19.8516C101.462 22.2432 99.3799 23.2617 97.1738 23.2617C96.2744 23.3428 95.3701 23.1504 94.5801 22.709C93.79 22.2676 93.1484 21.5977 92.7402 20.7852L95.4258 19.2529C95.5322 19.6279 95.7627 19.9541 96.0791 20.1768C96.3955 20.4004 96.7783 20.5078 97.1631 20.4805C97.9023 20.4805 98.2773 20.25 98.2773 19.8301C98.2773 18.6865 93.209 19.2949 93.209 15.6963C93.209 13.4297 95.1035 12.2969 97.2471 12.2969C98.0625 12.2598 98.8721 12.4463 99.5898 12.8359C100.308 13.2256 100.908 13.8047 101.326 14.5107L98.6416 15.9375C98.5234 15.667 98.3291 15.4365 98.084 15.2744C97.8379 15.1123 97.5508 15.0254 97.2578 15.0244C96.7168 15.0244 96.3936 15.2344 96.3936 15.6016C96.3936 16.7979 101.462 16.0107 101.462 19.8516Z" fill="#282938" fill-opacity="1.000000" fill-rule="nonzero"/>
		<path id="Vector" d="M112.775 12.5801L112.775 22.9678L109.653 22.9678L109.653 21.9922C109.298 22.4238 108.848 22.7656 108.338 22.9902C107.828 23.2139 107.273 23.3145 106.718 23.2822C104.636 23.2822 102.856 21.7822 102.856 18.9805L102.856 12.5801L105.979 12.5801L105.979 18.5088C105.954 18.7559 105.983 19.0068 106.064 19.2422C106.146 19.4775 106.275 19.6924 106.446 19.8721C106.618 20.0518 106.826 20.1914 107.056 20.2822C107.286 20.373 107.533 20.4121 107.779 20.3975C108.903 20.3975 109.694 19.7256 109.694 18.2988L109.694 12.5801L112.775 12.5801Z" fill="#282938" fill-opacity="1.000000" fill-rule="nonzero"/>
		<path id="Vector" d="M130.468 16.5879L130.468 22.9678L127.346 22.9678L127.346 16.8613C127.346 15.8115 126.855 15.1611 125.867 15.1611C124.878 15.1611 124.254 15.8857 124.254 17.1133L124.254 22.9678L121.132 22.9678L121.132 16.8613C121.132 15.8115 120.643 15.1611 119.653 15.1611C118.665 15.1611 118.04 15.8857 118.04 17.1133L118.04 22.9678L114.918 22.9678L114.918 12.5801L118.04 12.5801L118.04 13.5352C118.363 13.1133 118.786 12.7793 119.27 12.5625C119.753 12.3467 120.282 12.2549 120.81 12.2969C121.337 12.2695 121.863 12.3799 122.336 12.6191C122.808 12.8584 123.212 13.2178 123.504 13.6611C123.848 13.1973 124.302 12.8291 124.824 12.5908C125.347 12.3525 125.92 12.251 126.491 12.2969C128.928 12.2969 130.468 13.9971 130.468 16.5879Z" fill="#282938" fill-opacity="1.000000" fill-rule="nonzero"/>
		<path id="Vector" d="M14.3691 5.07715L14.3691 0.618164L0.422852 0.618164L0.422852 31.2568L14.3691 31.2568L14.3691 26.7969C11.5127 26.7969 8.77246 25.6533 6.75195 23.6162C4.73242 21.5801 3.59766 18.8174 3.59766 15.9375C3.59766 13.0576 4.73242 10.2949 6.75195 8.25879C8.77246 6.22168 11.5127 5.07715 14.3691 5.07715Z" fill="#282938" fill-opacity="1.000000" fill-rule="nonzero"/>
		<path id="Vector" d="M14.3701 5.07812L14.3701 26.7979C17.2266 26.7979 19.9668 25.6543 21.9873 23.6172C24.0068 21.5801 25.1426 18.8184 25.1426 15.9385C25.1426 13.0576 24.0068 10.2959 21.9873 8.25879C19.9668 6.22266 17.2266 5.07812 14.3701 5.07812Z" fill="#282938" fill-opacity="1.000000" fill-rule="nonzero"/>
		<path id="Vector" d="M133.091 12.5176C134.355 12.5176 135.381 11.4834 135.381 10.209C135.381 8.93359 134.355 7.90039 133.091 7.90039C131.826 7.90039 130.801 8.93359 130.801 10.209C130.801 11.4834 131.826 12.5176 133.091 12.5176Z" fill="#282938" fill-opacity="1.000000" fill-rule="nonzero"/>
	</g>
</svg>
