<svg width="136.364258" height="32.000000" viewBox="0 0 136.364 32" fill="none" xmlns="http://www.w3.org/2000/svg" xmlns:xlink="http://www.w3.org/1999/xlink">
	<desc>
			Created with Pixso.
	</desc>
	<defs>
		<clipPath id="clip904_1080">
			<rect id="Logo 5" width="136.364487" height="32.000000" fill="white" fill-opacity="0"/>
		</clipPath>
	</defs>
	<rect id="Logo 5" width="136.364487" height="32.000000" fill="#FFFFFF" fill-opacity="0"/>
	<g clip-path="url(#clip904_1080)">
		<path id="Vector" d="M39.1045 9.89941L42.5332 9.89941L42.5332 23.7666L39.1045 23.7666L39.1045 9.89941ZM43.9004 18.5508C43.9004 15.1162 46.0371 13.0566 49.2412 13.0566C52.4463 13.0566 54.582 15.1162 54.582 18.5508C54.582 21.9854 52.5205 24.0654 49.2412 24.0654C45.9619 24.0654 43.9004 22.0605 43.9004 18.5508ZM51.1855 18.5508C51.1855 16.6621 50.4482 15.5527 49.2734 15.5527C48.0986 15.5527 47.3721 16.6201 47.3721 18.5508C47.3721 20.4814 48.0986 21.5371 49.2734 21.5371C50.4482 21.5371 51.207 20.4814 51.207 18.5615L51.1855 18.5508ZM55.9492 24.4814L59.2607 24.4814C59.4111 24.8379 59.6748 25.1348 60.0107 25.3271C60.3457 25.5195 60.7354 25.5977 61.1191 25.5479C62.4336 25.5479 63.1172 24.8447 63.1172 23.7988L63.1172 21.8789L63.1279 21.8789C62.8447 22.4766 62.3867 22.9746 61.8154 23.3086C61.2432 23.6416 60.583 23.7939 59.9229 23.7451C57.4131 23.7451 55.7461 21.8359 55.7461 18.5508C55.7461 15.2646 57.3379 13.2168 60.0195 13.2168C60.6963 13.1807 61.3682 13.3555 61.9424 13.7168C62.5166 14.0771 62.9639 14.6074 63.2236 15.2334L63.1279 15.2334L63.1279 13.3027L66.5244 13.3027L66.5244 23.6924C66.5244 26.1992 64.3027 27.7676 61.0342 27.7676C58.0645 27.7568 56.1631 26.4014 55.9707 24.4922L55.9492 24.4814ZM63.1279 18.5508C63.1279 16.876 62.3584 15.8193 61.1406 15.8193C59.9229 15.8193 59.1758 16.8867 59.1758 18.5508C59.1758 20.2148 59.9121 21.1963 61.1406 21.1963C62.3691 21.1963 63.1279 20.2891 63.1279 18.5508ZM67.8809 18.5508C67.8809 15.1162 70.0176 13.0566 73.2217 13.0566C76.4268 13.0566 78.5625 15.1162 78.5625 18.5508C78.5625 21.9854 76.4902 24.0654 73.2217 24.0654C69.9531 24.0654 67.9023 22.0605 67.9023 18.5508L67.8809 18.5508ZM75.166 18.5508C75.166 16.6621 74.418 15.5527 73.2539 15.5527C72.0898 15.5527 71.3525 16.6201 71.3525 18.5508C71.3525 20.4814 72.0791 21.5371 73.2539 21.5371C74.4287 21.5371 75.1875 20.4814 75.1875 18.5615L75.166 18.5508ZM79.9512 10.7744C79.9365 10.4258 80.0264 10.0801 80.209 9.7832C80.3926 9.48535 80.6611 9.25 80.9795 9.10547C81.2979 8.96191 81.6523 8.91602 81.9971 8.97559C82.3408 9.03418 82.6602 9.19434 82.9131 9.43555C83.165 9.67773 83.3398 9.98828 83.4141 10.3301C83.4873 10.6709 83.457 11.0264 83.3271 11.3506C83.1973 11.6748 82.9727 11.9521 82.6836 12.1484C82.3945 12.3438 82.0527 12.4482 81.7031 12.4492C81.4795 12.4551 81.2568 12.416 81.0488 12.335C80.8408 12.2539 80.6504 12.1328 80.4893 11.9785C80.3281 11.8232 80.2002 11.6377 80.1113 11.4336C80.0225 11.2285 79.9756 11.0078 79.9727 10.7852L79.9512 10.7744ZM79.9512 13.292L83.4229 13.292L83.4229 23.8096L80.0049 23.8096L79.9512 13.292ZM95.9092 18.5508C95.9092 21.9746 94.3721 23.959 91.7549 23.959C91.085 24 90.418 23.835 89.8447 23.4863C89.2715 23.1367 88.8203 22.6211 88.5498 22.0068L88.4863 22.0068L88.4863 27.1914L85.0566 27.1914L85.0566 13.3232L88.4639 13.3232L88.4639 15.2012L88.5293 15.2012C88.7891 14.5752 89.2373 14.0449 89.8105 13.6826C90.3838 13.3193 91.0547 13.1426 91.7324 13.1748C94.4248 13.1533 95.9736 15.127 95.9736 18.5615L95.9092 18.5508ZM92.417 18.5508C92.417 16.8867 91.6367 15.8096 90.4297 15.8096C89.2227 15.8096 88.4639 16.876 88.4541 18.5508C88.4434 20.2256 89.2227 21.2812 90.4297 21.2812C91.6367 21.2812 92.4814 20.2891 92.4814 18.5615L92.417 18.5508ZM101.763 13.0459C104.637 13.0459 106.421 14.4014 106.441 16.5771L103.312 16.5771C103.312 15.8193 102.683 15.3506 101.742 15.3506C100.802 15.3506 100.354 15.7129 100.354 16.2568C100.354 16.8008 100.749 16.9717 101.539 17.1318L103.739 17.5801C105.876 18.0283 106.73 18.8818 106.73 20.4707C106.73 22.6045 104.754 24.0547 101.817 24.0547C98.8789 24.0547 96.9668 22.6465 96.8291 20.5029L100.15 20.5029C100.246 21.2812 100.866 21.7402 101.87 21.7402C102.874 21.7402 103.344 21.4199 103.344 20.8545C103.344 20.2891 103.024 20.1934 102.201 20.0225L100.214 19.6064C98.1523 19.1689 97.0732 18.0918 97.0732 16.4814C97.1387 14.3906 98.9326 13.0566 101.827 13.0566L101.763 13.0459ZM118.213 23.7988L114.891 23.7988L114.891 21.8252L114.827 21.8252C114.641 22.4834 114.236 23.0586 113.679 23.4561C113.122 23.8545 112.445 24.0498 111.762 24.0127C111.244 24.0293 110.731 23.9365 110.253 23.7412C109.774 23.5459 109.344 23.251 108.988 22.877C108.632 22.5039 108.359 22.0586 108.188 21.5723C108.015 21.0859 107.948 20.5693 107.99 20.0547L107.99 13.3027L111.42 13.3027L111.42 19.3184C111.42 20.5557 112.071 21.2285 113.14 21.2285C113.391 21.2266 113.637 21.1709 113.864 21.0654C114.092 20.96 114.293 20.8066 114.457 20.6162C114.619 20.4268 114.739 20.2041 114.81 19.9629C114.879 19.7227 114.896 19.4707 114.859 19.2227L114.859 13.3027L118.277 13.3027L118.213 23.7988ZM119.868 13.292L123.202 13.292L123.202 15.3184L123.275 15.3184C123.46 14.6689 123.854 14.0996 124.397 13.6982C124.94 13.2959 125.603 13.0859 126.277 13.0996C126.956 13.041 127.632 13.2363 128.173 13.6494C128.715 14.0615 129.082 14.6602 129.204 15.3291L129.354 15.3291C129.567 14.6572 129.997 14.0742 130.577 13.6709C131.156 13.2676 131.854 13.0664 132.559 13.0996C133.027 13.082 133.495 13.1631 133.93 13.3379C134.365 13.5137 134.759 13.7783 135.084 14.1152C135.41 14.4531 135.66 14.8545 135.819 15.2959C135.979 15.7363 136.044 16.2061 136.009 16.6729L136.009 23.8096L132.559 23.8096L132.559 17.5479C132.559 16.4814 132.057 15.8838 131.085 15.8838C130.868 15.8799 130.654 15.9238 130.458 16.0098C130.261 16.0967 130.084 16.2256 129.94 16.3857C129.798 16.5469 129.691 16.7373 129.629 16.9434C129.566 17.1494 129.55 17.3662 129.578 17.5801L129.578 23.8096L126.31 23.8096L126.31 17.5156C126.31 16.4492 125.786 15.8838 124.847 15.8838C124.629 15.8818 124.413 15.9268 124.214 16.0156C124.015 16.1035 123.836 16.2334 123.692 16.3965C123.548 16.5586 123.439 16.751 123.375 16.958C123.311 17.166 123.292 17.3857 123.318 17.6016L123.318 23.8096L119.891 23.8096L119.868 13.292Z" fill="#282938" fill-opacity="1.000000" fill-rule="nonzero"/>
		<path id="Vector" d="M32.3223 10.8066C32.3223 8.68359 31.6807 6.60938 30.4805 4.85742C29.2803 3.10449 27.5791 1.75488 25.5977 0.984375C23.6162 0.213867 21.4482 0.0595703 19.3779 0.541016C17.3066 1.02148 15.4307 2.11621 13.9932 3.68066L0.662109 3.68066L0.662109 31.7783L28.8086 31.7783L28.8086 18.6465C29.9131 17.6602 30.7969 16.4521 31.4023 15.1006C32.0078 13.75 32.3213 12.2861 32.3223 10.8066ZM26.9072 10.8066C26.9092 11.8232 26.6094 12.8184 26.0449 13.666C25.4805 14.5127 24.6768 15.1729 23.7363 15.5645C22.7959 15.9551 21.7598 16.0586 20.7607 15.8613C19.7607 15.6641 18.8428 15.1748 18.1221 14.4561C17.4004 13.7373 16.9092 12.8213 16.71 11.8242C16.5098 10.8262 16.6113 9.79199 17.001 8.85156C17.3896 7.91211 18.0498 7.1084 18.8965 6.54297C19.7441 5.97754 20.7393 5.67578 21.7588 5.67578C23.1221 5.67578 24.4297 6.21582 25.3955 7.17773C26.3604 8.13965 26.9043 9.44434 26.9072 10.8066ZM23.3926 26.3701L6.07812 26.3701L6.07812 9.08887L11.3545 9.08887C11.2529 9.65625 11.1992 10.2305 11.1943 10.8066C11.1973 13.6035 12.3105 16.2852 14.292 18.2627C16.2725 20.2412 18.957 21.3535 21.7588 21.3564C22.3057 21.3535 22.8525 21.3066 23.3926 21.2178L23.3926 26.3701Z" fill="#282938" fill-opacity="1.000000" fill-rule="nonzero"/>
	</g>
</svg>
