<svg width="153.743164" height="32.000000" viewBox="0 0 153.743 32" fill="none" xmlns="http://www.w3.org/2000/svg" xmlns:xlink="http://www.w3.org/1999/xlink">
	<desc>
			Created with Pixso.
	</desc>
	<defs>
		<clipPath id="clip904_1069">
			<rect id="Logo 4" width="153.742691" height="32.000000" fill="white" fill-opacity="0"/>
		</clipPath>
	</defs>
	<rect id="Logo 4" width="153.742691" height="32.000000" fill="#FFFFFF" fill-opacity="0"/>
	<g clip-path="url(#clip904_1069)">
		<path id="Vector" d="M49.6113 25.4922C48.8369 25.5342 48.0703 25.3154 47.4365 24.8711C47.1709 24.6758 46.958 24.4189 46.8154 24.123C46.6719 23.8281 46.6035 23.502 46.6162 23.1738L46.6162 11.168C46.6094 11.1172 46.6152 11.0654 46.6318 11.0176C46.6484 10.9688 46.6758 10.9248 46.7129 10.8887C46.749 10.8525 46.793 10.8252 46.8418 10.8086C46.8906 10.792 46.9424 10.7861 46.9932 10.793L49.1816 10.793C49.4287 10.793 49.5459 10.9219 49.5459 11.168L49.5459 22.2412C49.5459 22.7334 49.7676 22.9795 50.2236 22.9795C50.417 22.9883 50.6104 22.9658 50.7969 22.915C51.0566 22.915 51.2002 22.9932 51.2129 23.2256L51.4082 24.8447C51.418 24.8916 51.417 24.9404 51.4062 24.9873C51.3945 25.0342 51.374 25.0781 51.3438 25.1162C51.3145 25.1543 51.2773 25.1855 51.2344 25.208C51.1914 25.2305 51.1445 25.2432 51.0957 25.2461C50.6162 25.4033 50.1162 25.4863 49.6113 25.4922Z" fill="#282938" fill-opacity="1.000000" fill-rule="nonzero"/>
		<path id="Vector" d="M61.9189 24.1074C60.8203 25.0107 59.4385 25.5049 58.0127 25.5049C56.5859 25.5049 55.2041 25.0107 54.1055 24.1074C53.1387 23.1367 52.5967 21.8271 52.5967 20.4609C52.5967 19.0957 53.1387 17.7852 54.1055 16.8154C55.207 15.917 56.5869 15.4258 58.0127 15.4258C59.4365 15.4258 60.8174 15.917 61.9189 16.8154C62.8633 17.7949 63.3906 19.0986 63.3906 20.4551C63.3906 21.8115 62.8633 23.1152 61.9189 24.0947L61.9189 24.1074ZM56.1631 22.3975C56.6729 22.8574 57.3369 23.1113 58.0254 23.1113C58.7139 23.1113 59.3779 22.8574 59.8877 22.3975C60.3496 21.8701 60.6035 21.1934 60.6035 20.4941C60.6035 19.7939 60.3496 19.1182 59.8877 18.5898C59.3779 18.1299 58.7139 17.876 58.0254 17.876C57.3369 17.876 56.6729 18.1299 56.1631 18.5898C55.7012 19.1182 55.4473 19.7939 55.4473 20.4941C55.4473 21.1934 55.7012 21.8701 56.1631 22.3975Z" fill="#282938" fill-opacity="1.000000" fill-rule="nonzero"/>
		<path id="Vector" d="M75.4375 15.752C75.6855 15.752 75.8027 15.8818 75.8027 16.1279L75.8027 25.4141C75.8252 26.041 75.707 26.665 75.457 27.2402C75.207 27.8164 74.8311 28.3291 74.3564 28.7422C73.3037 29.6357 71.9492 30.0986 70.5674 30.0381C69.3184 30.0811 68.0859 29.7422 67.0371 29.0664C66.5898 28.7734 66.207 28.3926 65.9141 27.9473C65.6201 27.502 65.4219 27.001 65.3311 26.4756C65.3311 26.2168 65.3311 26.1006 65.6826 26.1006L67.8711 26.1006C67.9639 26.1035 68.0537 26.1338 68.1299 26.1865C68.2061 26.2393 68.2656 26.3125 68.3008 26.3984C68.4424 26.792 68.7256 27.1191 69.0957 27.3174C69.5459 27.5488 70.0469 27.665 70.5537 27.6543C70.8594 27.6709 71.166 27.627 71.4541 27.5244C71.7432 27.4229 72.0078 27.2646 72.2344 27.0586C72.4404 26.8438 72.6016 26.5898 72.7061 26.3115C72.8115 26.0332 72.8594 25.7373 72.8457 25.4395L72.8457 24.624C72.0625 25.1973 71.1094 25.4932 70.1367 25.4658C69.457 25.4902 68.7783 25.3779 68.1426 25.1357C67.5068 24.8926 66.9277 24.5254 66.4385 24.0537C65.499 23.0879 64.9746 21.7969 64.9746 20.4541C64.9746 19.1104 65.499 17.8193 66.4385 16.8535C66.9297 16.3867 67.5107 16.0225 68.1455 15.7822C68.7812 15.542 69.458 15.4307 70.1367 15.4541C71.1377 15.4277 72.1162 15.7432 72.9111 16.3477L72.9111 16.1406C72.9053 16.0908 72.9102 16.041 72.9268 15.9932C72.9424 15.9463 72.9688 15.9023 73.0039 15.8672C73.0391 15.8311 73.0811 15.8027 73.1279 15.7852C73.1758 15.7676 73.2256 15.7607 73.2764 15.7656L75.4375 15.752ZM70.3848 23.1602C70.7197 23.1709 71.0537 23.1074 71.3623 22.9756C71.6709 22.8438 71.9463 22.6455 72.1689 22.3965C72.6016 21.8398 72.8369 21.1572 72.8369 20.4541C72.8369 19.75 72.6016 19.0674 72.1689 18.5107C71.9463 18.2646 71.6729 18.0703 71.3672 17.9404C71.0605 17.8105 70.7305 17.749 70.3975 17.7598C70.0586 17.749 69.7207 17.8115 69.4082 17.9443C69.0957 18.0762 68.8154 18.2734 68.5869 18.5234C68.1074 19.0557 67.8555 19.7529 67.8838 20.4668C67.8604 21.1738 68.1074 21.8633 68.5742 22.3965C68.8027 22.6455 69.083 22.8428 69.3955 22.9756C69.708 23.1074 70.0449 23.1699 70.3848 23.1602Z" fill="#282938" fill-opacity="1.000000" fill-rule="nonzero"/>
		<path id="Vector" d="M87.041 24.1064C85.9395 25.0049 84.5596 25.4961 83.1348 25.4961C81.71 25.4961 80.3291 25.0049 79.2275 24.1064C78.2822 23.125 77.7549 21.8193 77.7549 20.4609C77.7549 19.1016 78.2822 17.7959 79.2275 16.8145C80.3301 15.918 81.71 15.4287 83.1348 15.4287C84.5586 15.4287 85.9385 15.918 87.041 16.8145C87.9854 17.7939 88.5127 19.0977 88.5127 20.4541C88.5127 21.8105 87.9854 23.1143 87.041 24.0938L87.041 24.1064ZM81.2725 22.3965C81.5215 22.6328 81.8164 22.8174 82.1377 22.9395C82.46 23.0625 82.8027 23.1201 83.1475 23.1094C83.4893 23.1182 83.8301 23.0596 84.1494 22.9375C84.4697 22.8154 84.7617 22.6318 85.0098 22.3965C85.4639 21.8652 85.7129 21.1904 85.7129 20.4932C85.7129 19.7949 85.4639 19.1201 85.0098 18.5889C84.7617 18.3545 84.4697 18.1709 84.1494 18.0488C83.8301 17.9258 83.4893 17.8682 83.1475 17.877C82.8027 17.8662 82.46 17.9238 82.1377 18.0459C81.8164 18.168 81.5215 18.3525 81.2725 18.5889C80.8174 19.1201 80.5684 19.7949 80.5684 20.4932C80.5684 21.1904 80.8174 21.8652 81.2725 22.3965Z" fill="#282938" fill-opacity="1.000000" fill-rule="nonzero"/>
		<path id="Vector" d="M93.2148 13.5518C92.8711 13.8506 92.4287 14.0166 91.9717 14.0166C91.5137 14.0166 91.0723 13.8506 90.7275 13.5518C90.5713 13.4053 90.4473 13.2285 90.3623 13.0322C90.2773 12.8359 90.2334 12.625 90.2334 12.4111C90.2334 12.1982 90.2773 11.9873 90.3623 11.791C90.4473 11.5947 90.5713 11.418 90.7275 11.2715C91.0752 10.9795 91.5156 10.8193 91.9717 10.8193C92.4268 10.8193 92.8672 10.9795 93.2148 11.2715C93.3711 11.418 93.4961 11.5947 93.5811 11.791C93.666 11.9873 93.709 12.1982 93.709 12.4111C93.709 12.625 93.666 12.8359 93.5811 13.0322C93.4961 13.2285 93.3711 13.4053 93.2148 13.5518ZM93.4883 25.4922C92.7148 25.5303 91.9492 25.3115 91.3135 24.8711C91.0527 24.6729 90.8438 24.415 90.7031 24.1201C90.5625 23.8252 90.4951 23.501 90.5059 23.1738L90.5059 16.1289C90.5 16.0781 90.5059 16.0264 90.5225 15.9775C90.5391 15.9297 90.5664 15.8857 90.6025 15.8486C90.6396 15.8125 90.6836 15.7852 90.7324 15.7686C90.7812 15.752 90.833 15.7471 90.8838 15.7529L93.0723 15.7529C93.3193 15.7529 93.4365 15.8828 93.4365 16.1289L93.4365 22.2412C93.4365 22.7334 93.6582 22.9795 94.1006 22.9795C94.2979 22.9873 94.4961 22.9648 94.6865 22.915C94.9473 22.915 95.0908 22.9932 95.1035 23.2256L95.2988 24.8447C95.3086 24.8926 95.3076 24.9404 95.2959 24.9873C95.2852 25.0342 95.2646 25.0781 95.2344 25.1162C95.2051 25.1543 95.167 25.1855 95.125 25.208C95.082 25.2305 95.0352 25.2432 94.9863 25.2461C94.5029 25.4043 93.998 25.4873 93.4883 25.4922Z" fill="#282938" fill-opacity="1.000000" fill-rule="nonzero"/>
		<path id="Vector" d="M103.349 15.4424C104.032 15.415 104.714 15.5254 105.354 15.7656C105.994 16.0059 106.578 16.3711 107.073 16.8408C107.995 17.8232 108.507 19.1172 108.507 20.4609C108.507 21.8037 107.995 23.0977 107.073 24.0811C106.581 24.5537 105.997 24.9229 105.356 25.166C104.717 25.4082 104.033 25.5195 103.349 25.4922C102.373 25.5137 101.418 25.2178 100.627 24.6504L100.627 29.3262C100.627 29.5723 100.496 29.6885 100.249 29.6885L98.0615 29.6885C98.0107 29.6973 97.96 29.6953 97.9111 29.6797C97.8623 29.665 97.8184 29.6387 97.7822 29.6025C97.7471 29.5674 97.7197 29.5234 97.7051 29.4746C97.6904 29.4268 97.6875 29.375 97.6963 29.3262L97.6963 18.7061C97.7119 18.6016 97.7021 18.4961 97.6689 18.3965C97.6357 18.2969 97.5801 18.2061 97.5049 18.1318C97.4307 18.0576 97.3398 18.002 97.2393 17.9688C97.1387 17.9355 97.0322 17.9268 96.9277 17.9414L96.498 17.9414C96.2119 17.9414 96.0684 17.8379 96.0684 17.6309L96.0684 16.1025C96.0615 16.0078 96.0879 15.9141 96.1426 15.8359C96.1973 15.7588 96.2764 15.7012 96.3682 15.6748C96.8184 15.5127 97.2949 15.4336 97.7744 15.4424C98.2529 15.4004 98.7324 15.501 99.1523 15.7314C99.5723 15.9619 99.9131 16.3125 100.132 16.7373C100.552 16.3154 101.053 15.9824 101.606 15.7598C102.159 15.5371 102.752 15.4287 103.349 15.4424ZM101.317 22.3965C101.549 22.6387 101.828 22.8301 102.137 22.9619C102.446 23.0928 102.778 23.1602 103.114 23.1602C103.45 23.1602 103.783 23.0928 104.092 22.9619C104.4 22.8301 104.68 22.6387 104.912 22.3965C105.4 21.8545 105.658 21.1436 105.628 20.415C105.662 19.6865 105.404 18.9736 104.912 18.4336C104.68 18.1924 104.4 18 104.092 17.8691C103.783 17.7383 103.45 17.6699 103.114 17.6699C102.778 17.6699 102.446 17.7383 102.137 17.8691C101.828 18 101.549 18.1924 101.317 18.4336C100.843 18.9834 100.597 19.6914 100.627 20.415C100.601 21.1387 100.847 21.8447 101.317 22.3965Z" fill="#282938" fill-opacity="1.000000" fill-rule="nonzero"/>
		<path id="Vector" d="M114.651 25.4912C113.482 25.5391 112.324 25.2617 111.305 24.6885C110.896 24.4443 110.548 24.1104 110.286 23.7139C110.025 23.3174 109.856 22.8662 109.794 22.3965C109.794 22.1367 109.886 22.0078 110.172 22.0078L112.087 22.0078C112.178 22.0117 112.267 22.04 112.342 22.0898C112.418 22.1406 112.478 22.21 112.516 22.293C112.789 22.9922 113.506 23.3418 114.651 23.3418C115.052 23.3604 115.449 23.2793 115.812 23.1084C115.936 23.0527 116.043 22.9639 116.121 22.8525C116.198 22.7402 116.245 22.6094 116.254 22.4736C116.254 22.1367 116.046 21.9043 115.629 21.749C115.135 21.585 114.623 21.4766 114.104 21.4248C113.491 21.3555 112.882 21.248 112.281 21.1016C111.697 20.9697 111.167 20.667 110.758 20.2334C110.518 19.9385 110.34 19.5967 110.236 19.2305C110.134 18.8643 110.107 18.4814 110.16 18.1045C110.213 17.7285 110.343 17.3662 110.542 17.042C110.741 16.7178 111.005 16.4375 111.318 16.2188C112.257 15.624 113.357 15.334 114.469 15.3896C115.547 15.3535 116.611 15.6182 117.543 16.1533C117.919 16.3652 118.242 16.6582 118.49 17.0098C118.738 17.3613 118.904 17.7637 118.977 18.1875C118.977 18.4463 118.858 18.5752 118.624 18.5752L116.697 18.5752C116.615 18.5801 116.535 18.5605 116.465 18.5195C116.396 18.4775 116.34 18.416 116.306 18.3428C116.177 18.0361 115.935 17.79 115.629 17.6562C115.283 17.4766 114.898 17.3877 114.509 17.3975C114.127 17.376 113.746 17.4521 113.401 17.6172C113.28 17.6641 113.177 17.7451 113.102 17.8516C113.027 17.958 112.986 18.084 112.985 18.2129C112.993 18.3896 113.059 18.5596 113.171 18.6973C113.283 18.835 113.438 18.9326 113.609 18.9775C114.11 19.1641 114.63 19.2949 115.159 19.3652C115.77 19.4453 116.373 19.5576 116.971 19.7021C117.555 19.834 118.085 20.1357 118.494 20.5703C118.713 20.8096 118.882 21.0889 118.991 21.3936C119.101 21.6982 119.148 22.0215 119.132 22.3447C119.144 22.792 119.038 23.2354 118.825 23.6299C118.613 24.0254 118.302 24.3584 117.921 24.5977C116.947 25.2188 115.808 25.5312 114.651 25.4912Z" fill="#282938" fill-opacity="1.000000" fill-rule="nonzero"/>
		<path id="Vector" d="M132.898 24.8447C132.905 24.8906 132.903 24.9375 132.894 24.9834C132.882 25.0283 132.861 25.0713 132.833 25.1084C132.806 25.1455 132.771 25.1768 132.73 25.2012C132.69 25.2246 132.646 25.2402 132.6 25.2461C132.124 25.4004 131.627 25.4834 131.128 25.4922C130.633 25.543 130.132 25.4668 129.676 25.2686C129.22 25.0713 128.822 24.7607 128.522 24.3652C127.604 25.1523 126.413 25.5557 125.202 25.4922C124.639 25.5186 124.077 25.4268 123.552 25.2236C123.028 25.0205 122.552 24.7109 122.154 24.3135C121.76 23.8975 121.453 23.4072 121.254 22.8711C121.055 22.334 120.968 21.7637 120.995 21.1924L120.995 16.1289C120.995 15.8828 121.112 15.7529 121.359 15.7529L123.548 15.7529C123.795 15.7529 123.912 15.8828 123.912 16.1289L123.912 20.8037C123.889 21.3867 124.089 21.9561 124.473 22.3975C124.663 22.5986 124.896 22.7578 125.154 22.8633C125.413 22.9678 125.691 23.0166 125.97 23.0059C126.256 23.0186 126.54 22.9746 126.809 22.876C127.077 22.7783 127.323 22.6289 127.533 22.4355C127.731 22.2324 127.886 21.9912 127.987 21.7256C128.087 21.4609 128.133 21.1777 128.119 20.8945L128.119 16.1289C128.119 15.8828 128.235 15.7529 128.483 15.7529L130.697 15.7529C130.945 15.7529 131.062 15.8828 131.062 16.1289L131.062 22.2285C131.062 22.7334 131.283 22.9795 131.714 22.9795C131.915 22.9873 132.117 22.9658 132.312 22.915C132.362 22.9014 132.413 22.8994 132.464 22.9082C132.515 22.917 132.562 22.9375 132.604 22.9668C132.645 22.9971 132.679 23.0361 132.702 23.0811C132.728 23.125 132.74 23.1748 132.742 23.2256L132.898 24.8447Z" fill="#282938" fill-opacity="1.000000" fill-rule="nonzero"/>
		<path id="Vector" d="M153.593 24.8447C153.604 24.8916 153.605 24.9395 153.596 24.9863C153.587 25.0332 153.567 25.0781 153.538 25.1162C153.51 25.1543 153.474 25.1865 153.431 25.209C153.389 25.2314 153.341 25.2441 153.294 25.2471C152.81 25.4033 152.305 25.4863 151.796 25.4932C151.021 25.5322 150.256 25.3135 149.62 24.8711C149.346 24.6816 149.123 24.4277 148.971 24.1318C148.818 23.8359 148.742 23.5068 148.749 23.1748L148.749 20.1309C148.775 19.5498 148.58 18.9805 148.201 18.5381C148.019 18.335 147.793 18.1758 147.54 18.0703C147.288 17.9648 147.017 17.917 146.743 17.9287C146.496 17.9199 146.251 17.9668 146.025 18.0654C145.8 18.1641 145.6 18.3125 145.44 18.499C145.096 18.9326 144.921 19.4756 144.945 20.0273L144.945 24.8066C144.945 25.0527 144.828 25.1816 144.581 25.1816L142.379 25.1816C142.328 25.1885 142.277 25.1826 142.228 25.166C142.179 25.1494 142.135 25.1221 142.099 25.0859C142.062 25.0498 142.034 25.0059 142.018 24.957C142 24.9092 141.995 24.8574 142.002 24.8066L142.002 20.1309C142.03 19.5566 141.85 18.9912 141.494 18.5381C141.335 18.3477 141.136 18.1943 140.911 18.0889C140.686 17.9834 140.44 17.9297 140.191 17.9287C139.926 17.9189 139.661 17.9639 139.414 18.0615C139.167 18.1602 138.944 18.3096 138.76 18.499C138.387 18.9189 138.195 19.4678 138.225 20.0273L138.225 24.8066C138.231 24.8574 138.226 24.9092 138.21 24.957C138.192 25.0059 138.165 25.0498 138.128 25.0859C138.092 25.1221 138.048 25.1494 137.999 25.166C137.95 25.1826 137.899 25.1885 137.848 25.1816L135.725 25.1816C135.478 25.1816 135.359 25.0527 135.359 24.8066L135.359 18.7061C135.375 18.6025 135.366 18.4961 135.333 18.3965C135.3 18.2969 135.243 18.2061 135.169 18.1318C135.095 18.0576 135.003 18.002 134.902 17.9688C134.803 17.9365 134.696 17.9268 134.592 17.9424L134.162 17.9424C133.875 17.9424 133.731 17.8389 133.731 17.6309L133.731 16.1025C133.726 16.0088 133.751 15.9141 133.806 15.8369C133.86 15.7588 133.939 15.7021 134.031 15.6758C134.481 15.5127 134.958 15.4336 135.438 15.4424C135.898 15.4033 136.359 15.4951 136.771 15.7051C137.18 15.916 137.522 16.2383 137.757 16.6338C138.195 16.2197 138.716 15.9004 139.286 15.6953C139.854 15.4902 140.46 15.4043 141.064 15.4424C141.65 15.4141 142.236 15.5234 142.772 15.7617C143.309 16 143.781 16.3613 144.15 16.8154C144.582 16.3496 145.111 15.9844 145.701 15.7471C146.292 15.5098 146.928 15.4053 147.563 15.4424C148.132 15.416 148.699 15.5068 149.23 15.71C149.762 15.9131 150.245 16.2227 150.649 16.6211C151.046 17.0361 151.352 17.5264 151.551 18.0635C151.75 18.5996 151.838 19.1709 151.809 19.7422L151.809 22.2422C151.809 22.7344 152.03 22.9805 152.446 22.9805C152.649 22.9893 152.852 22.9678 153.046 22.915C153.315 22.915 153.458 23.0186 153.476 23.2266L153.593 24.8447Z" fill="#282938" fill-opacity="1.000000" fill-rule="nonzero"/>
		<path id="Vector" d="M0.87793 14.0693C1.83887 10.2295 4.06348 6.81836 7.19922 4.38184C10.335 1.94434 14.2002 0.620117 18.1797 0.620117C22.1592 0.620117 26.0244 1.94434 29.1602 4.38184C32.2949 6.81836 34.5205 10.2295 35.4814 14.0693L33.9189 14.0693C31.2822 14.0312 28.7002 14.8145 26.5342 16.3105C26.4092 16.4004 26.2783 16.4824 26.1436 16.5566L25.9609 16.5566C25.8262 16.4824 25.6953 16.4004 25.5703 16.3105C23.3857 14.8496 20.8125 14.0693 18.1797 14.0693C15.5469 14.0693 12.9736 14.8496 10.7891 16.3105C10.6641 16.4004 10.5332 16.4824 10.3984 16.5566L10.2158 16.5566C10.0801 16.4824 9.9502 16.4004 9.8252 16.3105C7.65918 14.8145 5.07715 14.0312 2.44043 14.0693L0.87793 14.0693ZM31.1055 22.1904C31.9082 21.5693 32.9023 21.2441 33.9189 21.2705L36.0156 21.2705L36.0156 17.1133L33.9189 17.1133C32.1279 17.0918 30.3789 17.6455 28.9307 18.6934C28.1162 19.291 27.1299 19.6133 26.1172 19.6133C25.1055 19.6133 24.1191 19.291 23.3047 18.6934C21.8193 17.666 20.0537 17.1143 18.2451 17.1143C16.4355 17.1143 14.6699 17.666 13.1855 18.6934C12.3701 19.291 11.3848 19.6133 10.3721 19.6133C9.35938 19.6133 8.37402 19.291 7.55859 18.6934C6.09277 17.6328 4.31836 17.0781 2.50586 17.1133L0.34375 17.1133L0.34375 21.2705L2.44043 21.2705C3.45703 21.2441 4.45117 21.5693 5.25391 22.1904C6.73535 23.2188 8.5 23.7705 10.3066 23.7705C12.1143 23.7705 13.8779 23.2188 15.3604 22.1904C16.1631 21.5713 17.1572 21.2461 18.1729 21.2705C19.1895 21.2422 20.1846 21.5674 20.9863 22.1904C22.4707 23.2178 24.2363 23.7695 26.0459 23.7695C27.8555 23.7695 29.6211 23.2178 31.1055 22.1904ZM31.1055 29.624C31.9082 29.0029 32.9023 28.6777 33.9189 28.7051L36.0156 28.7051L36.0156 24.5479L33.9189 24.5479C32.1279 24.5264 30.3789 25.0801 28.9307 26.1279C28.1162 26.7246 27.1299 27.0469 26.1172 27.0469C25.1055 27.0469 24.1191 26.7246 23.3047 26.1279C21.8193 25.0996 20.0537 24.5488 18.2451 24.5488C16.4355 24.5488 14.6699 25.0996 13.1855 26.1279C12.3701 26.7246 11.3848 27.0469 10.3721 27.0469C9.35938 27.0469 8.37402 26.7246 7.55859 26.1279C6.09277 25.0664 4.31836 24.5117 2.50586 24.5479L0.34375 24.5479L0.34375 28.7051L2.44043 28.7051C3.45703 28.6777 4.45117 29.0029 5.25391 29.624C6.73535 30.6533 8.5 31.2041 10.3066 31.2041C12.1143 31.2041 13.8779 30.6533 15.3604 29.624C16.1631 29.0049 17.1572 28.6807 18.1729 28.7051C19.1895 28.6758 20.1846 29.001 20.9863 29.624C22.4707 30.6523 24.2363 31.2031 26.0459 31.2031C27.8555 31.2031 29.6211 30.6523 31.1055 29.624Z" fill="#282938" fill-opacity="1.000000" fill-rule="nonzero"/>
	</g>
</svg>
