<svg width="135.054688" height="32.000000" viewBox="0 0 135.055 32" fill="none" xmlns="http://www.w3.org/2000/svg" xmlns:xlink="http://www.w3.org/1999/xlink">
	<desc>
			Created with Pixso.
	</desc>
	<defs>
		<clipPath id="clip904_1066">
			<rect id="Logo 3" width="135.055099" height="32.000000" fill="white" fill-opacity="0"/>
		</clipPath>
	</defs>
	<rect id="Logo 3" width="135.055099" height="32.000000" fill="#FFFFFF" fill-opacity="0"/>
	<g clip-path="url(#clip904_1066)">
		<path id="Vector" d="M39.3184 9.34668L42.7012 9.34668L42.7012 23.0049L39.3184 23.0049L39.3184 9.34668ZM44.043 17.8477C44.043 14.4697 46.1172 12.4541 49.3193 12.4541C52.5215 12.4541 54.5957 14.4697 54.5957 17.8477C54.5957 21.2256 52.5664 23.2529 49.3193 23.2529C46.0723 23.2529 44.043 21.2822 44.043 17.8477ZM51.2021 17.8477C51.2021 15.9902 50.4697 14.8975 49.3193 14.8975C48.1689 14.8975 47.4473 16.0234 47.4473 17.8477C47.4473 19.6719 48.1582 20.7754 49.3193 20.7754C50.4805 20.7754 51.2021 19.7393 51.2021 17.8594L51.2021 17.8477ZM55.8701 23.6689L59.1172 23.6689C59.2715 24.0117 59.5332 24.2959 59.8623 24.4785C60.1914 24.6611 60.5713 24.7324 60.9443 24.6826C62.2295 24.6826 62.9062 23.9844 62.9062 22.9707L62.9062 21.0791L62.8379 21.0791C62.5684 21.6592 62.1318 22.1455 61.583 22.4746C61.0342 22.8037 60.3994 22.9609 59.7598 22.9258C57.291 22.9258 55.6562 21.0459 55.6562 17.8145C55.6562 14.583 57.2119 12.5449 59.8057 12.5449C60.4639 12.5186 61.1152 12.6943 61.6719 13.0488C62.2275 13.4033 62.6621 13.9189 62.917 14.5264L62.917 12.6455L66.2998 12.6455L66.2998 22.8926C66.2998 25.3584 64.124 26.8896 60.9102 26.8896C57.9219 26.8896 56.0615 25.5498 55.8701 23.6807L55.8701 23.6689ZM62.917 17.8369C62.917 16.1924 62.1621 15.1572 60.9668 15.1572C59.7715 15.1572 59.0381 16.1816 59.0381 17.8369C59.0381 19.4922 59.7598 20.4268 60.9668 20.4268C62.1729 20.4268 62.917 19.5146 62.917 17.8477L62.917 17.8369ZM67.5742 17.8369C67.5742 14.459 69.6484 12.4434 72.8506 12.4434C76.0527 12.4434 78.1387 14.459 78.1387 17.8369C78.1387 21.2148 76.1094 23.2412 72.8506 23.2412C69.5918 23.2412 67.5742 21.2822 67.5742 17.8477L67.5742 17.8369ZM74.7334 17.8369C74.7334 15.9785 74.001 14.8867 72.8506 14.8867C71.7002 14.8867 71.0352 16.0234 71.0352 17.8594C71.0352 19.6943 71.7451 20.7871 72.8955 20.7871C74.0459 20.7871 74.7334 19.7393 74.7334 17.8594L74.7334 17.8369ZM79.4238 10.1914C79.415 9.85059 79.5078 9.51465 79.6904 9.22559C79.873 8.9375 80.1367 8.70996 80.4492 8.57129C80.7617 8.43359 81.1084 8.39062 81.4443 8.44922C81.7812 8.50781 82.0928 8.66504 82.3398 8.90039C82.5869 9.13672 82.7588 9.44043 82.832 9.77344C82.9062 10.1064 82.8799 10.4541 82.7559 10.7715C82.6318 11.0898 82.416 11.3633 82.1367 11.5586C81.8564 11.7539 81.5244 11.8623 81.1826 11.8691C80.9561 11.8848 80.7295 11.8535 80.5156 11.7764C80.3018 11.7002 80.1064 11.5811 79.9414 11.4258C79.7764 11.2695 79.6445 11.082 79.5557 10.874C79.4668 10.665 79.4219 10.4404 79.4238 10.2139L79.4238 10.1914ZM79.4238 12.668L82.8066 12.668L82.8066 23.0049L79.4238 23.0049L79.4238 12.668ZM95.0859 17.8369C95.0859 21.2148 93.5859 23.1396 91.0156 23.1396C90.3555 23.1826 89.6992 23.0215 89.1348 22.6787C88.5703 22.3369 88.124 21.8291 87.8574 21.2256L87.79 21.2256L87.79 26.3154L84.4072 26.3154L84.4072 12.6455L87.79 12.6455L87.79 14.4922L87.8574 14.4922C88.1113 13.8789 88.5488 13.3584 89.1104 13.002C89.6709 12.6455 90.3281 12.4697 90.9922 12.499C93.5859 12.5449 95.1299 14.4814 95.1299 17.8594L95.0859 17.8369ZM91.7031 17.8369C91.7031 16.1924 90.9463 15.1455 89.7637 15.1455C88.5791 15.1455 87.8242 16.2041 87.8125 17.8369C87.8018 19.4697 88.5791 20.5166 89.7637 20.5166C90.9463 20.5166 91.7031 19.4922 91.7031 17.8594L91.7031 17.8369ZM100.892 12.4316C103.699 12.4316 105.402 13.7607 105.48 15.8887L102.402 15.8887C102.402 15.1572 101.794 14.6953 100.858 14.6953C99.9219 14.6953 99.5049 15.0557 99.5049 15.585C99.5049 16.1143 99.877 16.2832 100.633 16.4404L102.797 16.8799C104.861 17.3184 105.739 18.1523 105.739 19.7168C105.739 21.8564 103.789 23.2305 100.914 23.2305C98.0391 23.2305 96.1562 21.8564 96.0098 19.751L99.2676 19.751C99.3701 20.5166 99.9785 20.9668 100.971 20.9668C101.963 20.9668 102.414 20.6406 102.414 20.0996C102.414 19.5596 102.099 19.4473 101.286 19.2783L99.3359 18.8613C97.3174 18.4443 96.2578 17.375 96.2578 15.7988C96.2803 13.7715 98.0957 12.4541 100.892 12.4541L100.892 12.4316ZM117.026 22.9824L113.768 22.9824L113.768 21.0566L113.7 21.0566C113.521 21.7031 113.126 22.2695 112.58 22.6602C112.035 23.0518 111.372 23.2451 110.701 23.208C110.187 23.2373 109.673 23.1553 109.193 22.9688C108.714 22.7832 108.279 22.4961 107.92 22.1279C107.562 21.7598 107.286 21.3184 107.111 20.835C106.938 20.3506 106.87 19.835 106.912 19.3232L106.912 12.6455L110.295 12.6455L110.295 18.5459C110.295 19.7734 110.927 20.4268 111.976 20.4268C112.222 20.4268 112.464 20.375 112.688 20.2734C112.913 20.1729 113.112 20.0254 113.274 19.8408C113.437 19.6562 113.558 19.4395 113.629 19.2041C113.701 18.9697 113.722 18.7217 113.689 18.4785L113.689 12.6455L117.072 12.6455L117.026 22.9824ZM118.661 12.6455L121.932 12.6455L121.932 14.6387L121.999 14.6387C122.178 14.001 122.564 13.4404 123.097 13.0449C123.629 12.6504 124.277 12.4424 124.941 12.4541C125.617 12.4004 126.287 12.6025 126.82 13.0195C127.353 13.4365 127.708 14.0391 127.816 14.7061L127.885 14.7061C128.089 14.0322 128.513 13.4443 129.088 13.0371C129.664 12.6289 130.358 12.4238 131.064 12.4541C131.523 12.4395 131.982 12.5205 132.408 12.6934C132.835 12.8662 133.22 13.127 133.539 13.458C133.857 13.7891 134.104 14.1846 134.261 14.6162C134.417 15.0488 134.479 15.5088 134.446 15.9678L134.446 23.0049L131.064 23.0049L131.064 16.8682C131.064 15.7422 130.556 15.2246 129.609 15.2246C129.398 15.2227 129.188 15.2656 128.996 15.3516C128.803 15.4375 128.631 15.5635 128.491 15.7217C128.351 15.8799 128.247 16.0654 128.185 16.2676C128.122 16.4688 128.104 16.6816 128.132 16.8906L128.132 23.0049L124.919 23.0049L124.919 16.8232C124.919 15.7871 124.412 15.2246 123.487 15.2246C123.273 15.2246 123.062 15.2695 122.868 15.3574C122.673 15.4453 122.499 15.5723 122.356 15.7324C122.216 15.8916 122.109 16.0801 122.045 16.2832C121.981 16.4863 121.962 16.7012 121.987 16.9131L121.987 23.0049L118.604 23.0049L118.661 12.6455Z" fill="#282938" fill-opacity="1.000000" fill-rule="nonzero"/>
		<path id="Vector" d="M29.8584 9.96582C29.2852 8.65625 28.5254 7.43457 27.6035 6.34082C26.2412 4.6748 24.54 3.31543 22.6143 2.35352C20.6875 1.39062 18.5791 0.84668 16.4268 0.756836C14.2744 0.666992 12.127 1.0332 10.127 1.83105C8.12695 2.62891 6.31836 3.8418 4.82129 5.38867C3.32422 6.93457 2.17188 8.78027 1.44043 10.8037C0.708008 12.8271 0.414062 14.9824 0.577148 17.127C0.739258 19.2725 1.35449 21.3584 2.38281 23.249C3.41113 25.1396 4.82812 26.791 6.54199 28.0947C7.64062 28.9482 8.85547 29.6416 10.1494 30.1553C11.9639 30.8975 13.9053 31.2803 15.8662 31.2812C19.9131 31.2725 23.792 29.6611 26.6514 26.8008C29.5107 23.9414 31.1182 20.0654 31.1211 16.0244C31.124 13.9395 30.6943 11.877 29.8584 9.96582ZM15.8545 3.85254C17.6152 3.85156 19.3545 4.23633 20.9512 4.97852C20.5615 5.14648 20.1523 5.26367 19.7334 5.32715C18.3545 5.52637 17.0762 6.16602 16.0908 7.15039C15.1055 8.13477 14.4648 9.41113 14.2646 10.7881C14.1777 11.5605 13.8252 12.2793 13.2686 12.8232C12.7119 13.3662 11.9854 13.7021 11.21 13.7725C9.83008 13.9717 8.55273 14.6113 7.56641 15.5957C6.58105 16.5791 5.94043 17.8555 5.74121 19.2334C5.67383 19.9678 5.35938 20.6582 4.85059 21.1924C3.97168 19.3379 3.57715 17.292 3.70312 15.2441C3.8291 13.1973 4.47168 11.2148 5.57031 9.48145C6.66992 7.74902 8.19043 6.32227 9.99023 5.33398C11.791 4.3457 13.8115 3.82812 15.8662 3.83008L15.8545 3.85254ZM6.53027 23.9062C6.66602 23.7822 6.80078 23.6699 6.93652 23.5342C7.93945 22.5635 8.58301 21.2812 8.7627 19.8975C8.83594 19.1201 9.18359 18.3936 9.74414 17.8477C10.2832 17.2871 11.0088 16.9434 11.7842 16.8799C13.1641 16.6807 14.4414 16.041 15.4277 15.0566C16.4131 14.0723 17.0537 12.7959 17.2529 11.4189C17.3018 10.6055 17.6514 9.83887 18.2334 9.26855C18.7861 8.71875 19.5195 8.38672 20.2969 8.33398C21.5645 8.15918 22.7461 7.59668 23.6797 6.72363C24.7422 7.60449 25.6436 8.66309 26.3408 9.85352C26.2979 9.91113 26.249 9.96484 26.1943 10.0117C25.6562 10.5771 24.9307 10.9287 24.1533 11.002C22.7725 11.1982 21.4932 11.8369 20.5068 12.8213C19.5205 13.8066 18.8809 15.084 18.6846 16.4629C18.6055 17.2383 18.2598 17.9619 17.707 18.5117C17.1543 19.0625 16.4287 19.4043 15.6523 19.4805C14.2686 19.6787 12.9863 20.3174 11.9941 21.3008C11.0029 22.2842 10.3564 23.5615 10.1494 24.9414C10.0889 25.4922 9.89941 26.0205 9.59766 26.4844C8.44043 25.7988 7.4043 24.9277 6.53027 23.9062ZM15.8545 28.252C14.7109 28.2539 13.5723 28.0947 12.4727 27.7793C12.8486 27.0791 13.0928 26.3154 13.1943 25.5273C13.2734 24.7539 13.6162 24.0312 14.167 23.4814C14.7178 22.9316 15.4414 22.5889 16.2158 22.5098C17.5967 22.3125 18.8779 21.6738 19.8652 20.6895C20.8535 19.7051 21.4951 18.4277 21.6953 17.0488C21.7744 16.2754 22.1182 15.5527 22.6689 15.0029C23.2188 14.4531 23.9424 14.1104 24.7168 14.0312C25.7568 13.8965 26.7471 13.5098 27.6035 12.9053C28.0791 14.7041 28.1348 16.5879 27.7686 18.4131C27.4014 20.2373 26.6201 21.9531 25.4863 23.4297C24.3516 24.9053 22.8945 26.1025 21.2246 26.9287C19.5547 27.7549 17.7178 28.1885 15.8545 28.1963L15.8545 28.252Z" fill="#282938" fill-opacity="1.000000" fill-rule="nonzero"/>
	</g>
</svg>
