<svg width="161.815430" height="32.000000" viewBox="0 0 161.815 32" fill="none" xmlns="http://www.w3.org/2000/svg" xmlns:xlink="http://www.w3.org/1999/xlink">
	<desc>
			Created with Pixso.
	</desc>
	<defs>
		<clipPath id="clip904_1039">
			<rect id="Logo 1" width="161.815231" height="32.000000" fill="white" fill-opacity="0"/>
		</clipPath>
	</defs>
	<rect id="Logo 1" width="161.815231" height="32.000000" fill="#FFFFFF" fill-opacity="0"/>
	<g clip-path="url(#clip904_1039)">
		<path id="Vector" d="M24.7227 14.083C24.2734 14.5371 23.9287 15.0859 23.7139 15.6895C23.499 16.293 23.4199 16.9365 23.4814 17.5752L23.46 17.5537C23.5225 18.3047 23.4219 19.0596 23.1641 19.7676C22.9062 20.4756 22.498 21.1182 21.9668 21.6514C21.4365 22.1836 20.7959 22.5938 20.0908 22.8525C19.3867 23.1123 18.6338 23.2129 17.8857 23.1494L17.9072 23.1709C17.0127 23.0879 16.1143 23.2832 15.334 23.7305C14.5537 24.1787 13.9307 24.8574 13.5488 25.6738C13.167 26.4902 13.0449 27.4053 13.2002 28.2939C13.3555 29.1826 13.7793 30.002 14.415 30.6396C15.0508 31.2764 15.8672 31.7021 16.752 31.8574C17.6377 32.0117 18.5488 31.8887 19.3613 31.5049C20.1748 31.1211 20.8496 30.4941 21.2959 29.7109C21.7412 28.9277 21.9346 28.0254 21.8506 27.127L21.873 27.1484C21.8096 26.3975 21.9111 25.6416 22.1689 24.9336C22.4268 24.2266 22.835 23.583 23.3662 23.0508C23.8965 22.5176 24.5371 22.1074 25.2412 21.8486C25.9463 21.5898 26.6992 21.4883 27.4473 21.5518L27.4248 21.5303C28.1553 21.5967 28.8906 21.4766 29.5635 21.1807C30.2354 20.8857 30.8223 20.4248 31.2695 19.8408C31.7168 19.2568 32.0107 18.5693 32.123 17.8408C32.2354 17.1123 32.1621 16.3682 31.9121 15.6758C31.6611 14.9834 31.2402 14.3662 30.6885 13.8799C30.1367 13.3945 29.4717 13.0566 28.7549 12.8975C28.0381 12.7393 27.2939 12.7646 26.5889 12.9717C25.8848 13.1787 25.2441 13.5605 24.7266 14.083L24.7227 14.083Z" fill="#282938" fill-opacity="1.000000" fill-rule="nonzero"/>
		<path id="Vector" d="M15.9639 20.3604L15.9414 20.3389C16.5771 20.4033 17.2188 20.3252 17.8203 20.1094C18.4229 19.8945 18.9688 19.5469 19.4209 19.0938C19.873 18.6406 20.2188 18.0918 20.4336 17.4873C20.6484 16.8838 20.7275 16.2393 20.6641 15.6006L20.6865 15.6221C20.623 14.8711 20.7236 14.1152 20.9814 13.4082C21.2393 12.7002 21.6484 12.0576 22.1787 11.5244C22.71 10.9922 23.3496 10.582 24.0547 10.3232C24.7598 10.0635 25.5127 9.96289 26.2607 10.0264L26.2373 10.0049C27.1328 10.0889 28.0312 9.89453 28.8115 9.44727C29.5918 8.99902 30.2158 8.32129 30.5986 7.50488C30.9805 6.68848 31.1025 5.77344 30.9482 4.88477C30.7939 3.99512 30.3701 3.17578 29.7344 2.53809C29.0986 1.90039 28.2832 1.47461 27.3975 1.31934C26.5127 1.16406 25.6006 1.28711 24.7881 1.6709C23.9746 2.05469 23.2988 2.68066 22.8535 3.46484C22.4072 4.24805 22.2139 5.15039 22.2979 6.04883L22.2764 6.02637C22.3398 6.77734 22.2393 7.5332 21.9814 8.24121C21.7236 8.94824 21.3154 9.5918 20.7842 10.124C20.2539 10.6572 19.6133 11.0674 18.9082 11.3262C18.2031 11.585 17.4502 11.6865 16.7021 11.6221L16.7236 11.6455C16.0879 11.5811 15.4463 11.6592 14.8438 11.874C14.2422 12.0898 13.6953 12.4365 13.2441 12.8896C12.792 13.3438 12.4463 13.8926 12.2314 14.4961C12.0166 15.1006 11.9375 15.7451 12.001 16.3828L11.9795 16.3613C12.043 17.1123 11.9414 17.8682 11.6836 18.5752C11.4258 19.2832 11.0176 19.9258 10.4863 20.459C9.95605 20.9912 9.31641 21.4014 8.61133 21.6611C7.90625 21.9199 7.15332 22.0215 6.40625 21.958L6.42676 21.9795C5.53223 21.8945 4.63379 22.0898 3.85352 22.5371C3.07324 22.9844 2.44922 23.6631 2.06641 24.4795C1.68457 25.2959 1.56152 26.2109 1.7168 27.0996C1.87109 27.9883 2.29492 28.8076 2.93066 29.4453C3.56641 30.084 4.38184 30.5098 5.26758 30.665C6.15234 30.8193 7.06445 30.6973 7.87695 30.3135C8.69043 29.9297 9.36621 29.3027 9.81152 28.5195C10.2568 27.7363 10.4512 26.833 10.3672 25.9346L10.3896 25.9561C10.3262 25.2061 10.4277 24.4502 10.6855 23.7422C10.9434 23.0342 11.3516 22.3916 11.8828 21.8584C12.4131 21.3262 13.0537 20.916 13.7578 20.6572C14.4629 20.3984 15.2158 20.2969 15.9639 20.3604Z" fill="#282938" fill-opacity="1.000000" fill-rule="nonzero"/>
		<path id="Vector" d="M8.00488 17.9678C8.45508 17.5127 8.7998 16.9648 9.01367 16.3604C9.22852 15.7568 9.30762 15.1133 9.24609 14.4756L9.26855 14.4971C9.20508 13.7461 9.30566 12.9902 9.56348 12.2822C9.82227 11.5742 10.2305 10.9316 10.7617 10.3984C11.293 9.86523 11.9326 9.45508 12.6387 9.19629C13.3438 8.9375 14.0967 8.83691 14.8447 8.90039L14.8223 8.87891C15.7168 8.96387 16.6152 8.76855 17.3945 8.32129C18.1748 7.87402 18.7988 7.19531 19.1807 6.37988C19.5635 5.56348 19.6855 4.64844 19.5303 3.75977C19.376 2.87109 18.9521 2.05273 18.3164 1.41504C17.6816 0.777344 16.8662 0.351562 15.9805 0.196289C15.0957 0.0410156 14.1846 0.164062 13.3721 0.546875C12.5586 0.930664 11.8838 1.55664 11.4375 2.33984C10.9922 3.12305 10.7979 4.02539 10.8818 4.92383L10.8604 4.90234C10.9238 5.65332 10.8232 6.40918 10.5654 7.11621C10.3076 7.82422 9.89844 8.4668 9.36816 9C8.83691 9.53223 8.19727 9.94238 7.49219 10.2021C6.78711 10.4609 6.03418 10.5615 5.28711 10.498L5.30859 10.5195C4.57715 10.4541 3.8418 10.5742 3.16992 10.8701C2.49805 11.166 1.91113 11.627 1.46387 12.2109C1.01562 12.7949 0.722656 13.4824 0.610352 14.21C0.499023 14.9385 0.571289 15.6836 0.822266 16.375C1.07324 17.0674 1.49414 17.6855 2.0459 18.1709C2.59766 18.6562 3.2627 18.9941 3.97949 19.1523C4.69531 19.3115 5.44043 19.2861 6.14453 19.0791C6.84863 18.8721 7.48926 18.4893 8.00684 17.9678L8.00488 17.9678Z" fill="#282938" fill-opacity="1.000000" fill-rule="nonzero"/>
		<path id="Vector" d="M44.7881 6.07617L48.3145 6.07617L48.3145 23.3076L44.7881 23.3076L44.7881 6.07617Z" fill="#282938" fill-opacity="1.000000" fill-rule="nonzero"/>
		<path id="Vector" d="M50.3125 17.4072C50.3076 16.1689 50.6689 14.957 51.3506 13.9258C52.0322 12.8936 53.0039 12.0879 54.1416 11.6104C55.2793 11.1328 56.5332 11.0059 57.7432 11.2441C58.9541 11.4824 60.0664 12.0762 60.9404 12.9502C61.8145 13.8242 62.4102 14.9385 62.6523 16.1533C62.8945 17.3672 62.7725 18.626 62.3018 19.7705C61.8311 20.915 61.0322 21.8936 60.0078 22.582C58.9824 23.2705 57.7764 23.6377 56.543 23.6377C55.7246 23.6475 54.9121 23.4932 54.1533 23.1836C53.3955 22.874 52.7061 22.416 52.126 21.8359C51.5459 21.2559 51.0859 20.5654 50.7754 19.8047C50.4639 19.0449 50.3066 18.2295 50.3125 17.4072ZM59.2471 17.4072C59.2324 16.874 59.0615 16.3564 58.7549 15.9199C58.4492 15.4834 58.0215 15.1465 57.5264 14.9521C57.0303 14.7588 56.4893 14.7148 55.9697 14.8281C55.4502 14.9414 54.9746 15.2061 54.6045 15.5889C54.2334 15.9717 53.9834 16.4561 53.8848 16.9805C53.7861 17.5049 53.8447 18.0479 54.0508 18.5391C54.2578 19.0312 54.6045 19.4512 55.0479 19.7461C55.4912 20.041 56.0117 20.1982 56.543 20.1982C56.9072 20.208 57.2695 20.1426 57.6074 20.0039C57.9443 19.8662 58.25 19.6602 58.5039 19.3975C58.7578 19.1357 58.9551 18.8232 59.083 18.4805C59.2109 18.1387 59.2666 17.7725 59.2471 17.4072Z" fill="#282938" fill-opacity="1.000000" fill-rule="nonzero"/>
		<path id="Vector" d="M76.8301 11.5059L76.8301 22.7119C76.8301 26.6777 73.75 28.3535 70.624 28.3535C69.5225 28.4365 68.4209 28.2129 67.4375 27.709C66.4551 27.2041 65.6299 26.4375 65.0518 25.4922L68.0605 23.7461C68.3037 24.2383 68.6904 24.6445 69.1689 24.9102C69.6484 25.1758 70.1963 25.2881 70.7412 25.2324C71.0889 25.2812 71.4434 25.25 71.7773 25.1426C72.1123 25.0352 72.418 24.8535 72.6738 24.6104C72.9287 24.3682 73.126 24.0713 73.251 23.7422C73.377 23.4121 73.4268 23.0586 73.3975 22.707L73.3975 21.6289C72.9844 22.1357 72.459 22.5391 71.8623 22.8057C71.2666 23.0723 70.6162 23.1943 69.9648 23.1631C68.4131 23.1143 66.9424 22.4609 65.8623 21.3418C64.7822 20.2227 64.1787 18.7256 64.1787 17.168C64.1787 15.6094 64.7822 14.1133 65.8623 12.9941C66.9424 11.875 68.4131 11.2217 69.9648 11.1729C70.6162 11.1416 71.2666 11.2637 71.8623 11.5303C72.459 11.7969 72.9844 12.2002 73.3975 12.707L73.3975 11.5029L76.8301 11.5059ZM73.3984 17.1699C73.4229 16.5986 73.2754 16.0342 72.9766 15.5479C72.6777 15.0625 72.2412 14.6768 71.7227 14.4424C71.2041 14.207 70.6279 14.1338 70.0674 14.2305C69.5068 14.3281 68.9873 14.5908 68.5771 14.9863C68.167 15.3818 67.8838 15.8926 67.7646 16.4502C67.6455 17.0088 67.6953 17.5908 67.9082 18.1201C68.1211 18.6504 68.4863 19.1035 68.958 19.4229C69.4297 19.7422 69.9854 19.9121 70.5547 19.9121C70.9248 19.9375 71.2969 19.8857 71.6465 19.7588C71.9951 19.6309 72.3145 19.4326 72.582 19.1738C72.8506 18.916 73.0615 18.6035 73.2021 18.2588C73.3428 17.9131 73.4092 17.542 73.3984 17.1699Z" fill="#282938" fill-opacity="1.000000" fill-rule="nonzero"/>
		<path id="Vector" d="M78.8271 17.4072C78.8223 16.1689 79.1836 14.957 79.8652 13.9258C80.5469 12.8936 81.5186 12.0879 82.6562 11.6104C83.7939 11.1328 85.0479 11.0059 86.2578 11.2441C87.4688 11.4824 88.5811 12.0762 89.4551 12.9502C90.3291 13.8242 90.9248 14.9385 91.167 16.1533C91.4092 17.3672 91.2871 18.626 90.8164 19.7705C90.3457 20.915 89.5469 21.8936 88.5225 22.582C87.4971 23.2705 86.291 23.6377 85.0576 23.6377C84.2393 23.6475 83.4268 23.4932 82.668 23.1836C81.9102 22.874 81.2207 22.416 80.6406 21.8359C80.0605 21.2559 79.6016 20.5654 79.29 19.8047C78.9785 19.0449 78.8213 18.2295 78.8271 17.4072ZM87.7617 17.4072C87.7471 16.874 87.5762 16.3564 87.2695 15.9199C86.9639 15.4834 86.5361 15.1465 86.041 14.9521C85.5459 14.7588 85.0039 14.7148 84.4844 14.8281C83.9648 14.9414 83.4893 15.2061 83.1191 15.5889C82.748 15.9717 82.498 16.4561 82.3994 16.9805C82.3008 17.5049 82.3594 18.0479 82.5654 18.5391C82.7725 19.0312 83.1201 19.4512 83.5625 19.7461C84.0059 20.041 84.5264 20.1982 85.0576 20.1982C85.4219 20.208 85.7842 20.1426 86.1221 20.0039C86.46 19.8662 86.7646 19.6602 87.0186 19.3975C87.2725 19.1357 87.4697 18.8232 87.5977 18.4805C87.7256 18.1387 87.7812 17.7725 87.7617 17.4072Z" fill="#282938" fill-opacity="1.000000" fill-rule="nonzero"/>
		<path id="Vector" d="M92.9336 8.34277C92.9336 7.92188 93.0576 7.51172 93.29 7.16211C93.5225 6.8125 93.8535 6.54004 94.2402 6.37988C94.627 6.21875 95.0518 6.17676 95.4619 6.25879C95.873 6.34082 96.25 6.54297 96.5459 6.83984C96.8418 7.13672 97.0439 7.51562 97.125 7.92773C97.2061 8.33984 97.165 8.76758 97.0039 9.15527C96.8447 9.54395 96.5732 9.875 96.2256 10.1084C95.877 10.3418 95.4678 10.4668 95.0488 10.4668C94.4902 10.4609 93.9551 10.2354 93.5596 9.83887C93.1641 9.44141 92.9395 8.9043 92.9336 8.34277ZM93.29 11.5049L96.8184 11.5049L96.8184 23.3086L93.2852 23.3086L93.29 11.5049Z" fill="#282938" fill-opacity="1.000000" fill-rule="nonzero"/>
		<path id="Vector" d="M112.045 17.4072C112.086 18.1875 111.973 18.9678 111.712 19.7041C111.452 20.4395 111.048 21.1162 110.526 21.6953C110.004 22.2744 109.373 22.7441 108.67 23.0771C107.966 23.4111 107.203 23.6016 106.426 23.6377C105.773 23.6738 105.119 23.5625 104.514 23.3135C103.908 23.0645 103.365 22.6836 102.925 22.1973L102.925 28.0283L99.3975 28.0283L99.3975 11.5059L102.925 11.5059L102.925 12.6143C103.365 12.1289 103.908 11.748 104.515 11.499C105.119 11.25 105.773 11.1396 106.426 11.1758C107.203 11.2119 107.966 11.4023 108.67 11.7354C109.374 12.0684 110.005 12.5381 110.527 13.1182C111.049 13.6973 111.453 14.374 111.713 15.1104C111.974 15.8467 112.087 16.627 112.045 17.4072ZM108.519 17.4072C108.505 16.8545 108.329 16.3184 108.014 15.8662C107.698 15.4141 107.256 15.0645 106.744 14.8623C106.231 14.6611 105.671 14.6152 105.134 14.7314C104.596 14.8477 104.104 15.1211 103.719 15.5166C103.335 15.9121 103.075 16.4131 102.973 16.9561C102.871 17.499 102.93 18.0596 103.144 18.5693C103.358 19.0781 103.717 19.5127 104.175 19.8184C104.634 20.124 105.172 20.2861 105.723 20.2861C106.1 20.3037 106.477 20.2402 106.829 20.1006C107.181 19.96 107.499 19.748 107.763 19.4756C108.027 19.2041 108.23 18.8789 108.361 18.5225C108.491 18.166 108.545 17.7861 108.519 17.4072Z" fill="#282938" fill-opacity="1.000000" fill-rule="nonzero"/>
		<path id="Vector" d="M122.928 19.7666C122.928 22.4814 120.577 23.6377 118.039 23.6377C117.014 23.7314 115.983 23.5137 115.082 23.0127C114.181 22.5117 113.45 21.751 112.984 20.8291L116.039 19.082C116.163 19.5088 116.429 19.8789 116.792 20.1328C117.155 20.3857 117.594 20.5068 118.034 20.4746C118.88 20.4746 119.304 20.2148 119.304 19.7441C119.304 18.4443 113.52 19.1299 113.52 15.0469C113.52 12.4727 115.684 11.1758 118.129 11.1758C119.048 11.1465 119.957 11.3652 120.764 11.8096C121.57 12.2539 122.242 12.9062 122.712 13.7002L119.702 15.3291C119.571 15.0195 119.351 14.7568 119.071 14.5723C118.791 14.3877 118.464 14.2891 118.129 14.291C117.517 14.291 117.14 14.5293 117.14 14.9512C117.145 16.2969 122.928 15.3994 122.928 19.7666Z" fill="#282938" fill-opacity="1.000000" fill-rule="nonzero"/>
		<path id="Vector" d="M135.812 11.5059L135.812 23.3086L132.285 23.3086L132.285 22.1992C131.879 22.6885 131.362 23.0742 130.778 23.3252C130.193 23.5752 129.559 23.6826 128.925 23.6387C126.55 23.6387 124.531 21.9404 124.531 18.751L124.531 11.5059L128.059 11.5059L128.059 18.2324C128.029 18.5137 128.061 18.7979 128.151 19.0654C128.242 19.333 128.391 19.5771 128.585 19.7812C128.78 19.9854 129.016 20.1445 129.278 20.248C129.541 20.3506 129.822 20.3955 130.103 20.3779C131.396 20.3779 132.289 19.624 132.289 17.9473L132.289 11.5098L135.812 11.5059Z" fill="#282938" fill-opacity="1.000000" fill-rule="nonzero"/>
		<path id="Vector" d="M156.034 16.0615L156.034 23.3076L152.508 23.3076L152.508 16.3682C152.508 15.1875 151.943 14.4336 150.815 14.4336C149.64 14.4336 148.98 15.2598 148.98 16.6523L148.98 23.3076L145.455 23.3076L145.455 16.3682C145.455 15.1875 144.891 14.4336 143.762 14.4336C142.586 14.4336 141.929 15.2598 141.929 16.6523L141.929 23.3076L138.401 23.3076L138.401 11.5049L141.929 11.5049L141.929 12.5898C142.294 12.1084 142.774 11.7266 143.324 11.4795C143.875 11.2324 144.478 11.1279 145.079 11.1748C145.682 11.1455 146.283 11.2734 146.822 11.5459C147.362 11.8184 147.822 12.2275 148.158 12.7314C148.549 12.2041 149.066 11.7842 149.662 11.5117C150.259 11.2402 150.914 11.124 151.566 11.1748C154.266 11.1758 156.034 13.1113 156.034 16.0615Z" fill="#282938" fill-opacity="1.000000" fill-rule="nonzero"/>
		<path id="Vector" d="M159.018 11.4326C160.463 11.4326 161.635 10.2568 161.635 8.80566C161.635 7.35449 160.463 6.17773 159.018 6.17773C157.572 6.17773 156.4 7.35449 156.4 8.80566C156.4 10.2568 157.572 11.4326 159.018 11.4326Z" fill="#282938" fill-opacity="1.000000" fill-rule="nonzero"/>
	</g>
</svg>
