<svg width="50" height="50" viewBox="0 0 50 50" fill="none" xmlns="http://www.w3.org/2000/svg">
<rect width="50" height="50" rx="8" fill="#2405F2"/>
<mask id="mask0_706_712" style="mask-type:alpha" maskUnits="userSpaceOnUse" x="0" y="0" width="50" height="50">
<rect width="50" height="50" rx="8" fill="#5C5E84"/>
</mask>
<g mask="url(#mask0_706_712)">
<rect x="-26" y="27" width="50" height="50" rx="8" fill="#FCD980"/>
<rect x="8" y="-9" width="50" height="50" rx="8" fill="#5239FA"/>
</g>
<path d="M16.08 24.268C16.08 28.084 17.088 30.964 20.76 30.964C24.432 30.964 25.44 28.084 25.44 24.268C25.44 20.524 24.432 17.644 20.76 17.644C17.088 17.644 16.08 20.524 16.08 24.268ZM23.424 24.268C23.424 26.842 23.154 29.092 20.76 29.092C18.366 29.092 18.096 26.842 18.096 24.268C18.096 21.82 18.366 19.516 20.76 19.516C23.154 19.516 23.424 21.82 23.424 24.268ZM27.4493 30.82H36.1973V29.11H30.4913C32.5973 27.184 35.8373 24.754 35.8373 21.568C35.8373 19.21 34.3253 17.608 31.6613 17.608C29.3393 17.608 27.5033 18.994 27.4313 21.838H29.4113C29.4653 20.362 30.2393 19.354 31.6793 19.354C33.2093 19.354 33.8033 20.29 33.8033 21.658C33.8033 24.232 30.5453 26.608 27.4493 29.326V30.82Z" fill="white"/>
</svg>
