<svg width="50" height="50" viewBox="0 0 50 50" fill="none" xmlns="http://www.w3.org/2000/svg">
<rect width="50" height="50" rx="8" fill="#2405F2"/>
<mask id="mask0_706_699" style="mask-type:alpha" maskUnits="userSpaceOnUse" x="0" y="0" width="50" height="50">
<rect width="50" height="50" rx="8" fill="#5C5E84"/>
</mask>
<g mask="url(#mask0_706_699)">
<rect x="-26" y="27" width="50" height="50" rx="8" fill="#FCD980"/>
<rect x="8" y="-9" width="50" height="50" rx="8" fill="#5239FA"/>
</g>
<path d="M16.08 24.268C16.08 28.084 17.088 30.964 20.76 30.964C24.432 30.964 25.44 28.084 25.44 24.268C25.44 20.524 24.432 17.644 20.76 17.644C17.088 17.644 16.08 20.524 16.08 24.268ZM23.424 24.268C23.424 26.842 23.154 29.092 20.76 29.092C18.366 29.092 18.096 26.842 18.096 24.268C18.096 21.82 18.366 19.516 20.76 19.516C23.154 19.516 23.424 21.82 23.424 24.268ZM27.5753 21.118H29.5733C29.6993 20.2 30.3653 19.336 31.8053 19.336C33.2093 19.336 33.9473 20.092 33.9473 21.226C33.9473 22.63 32.8133 23.17 30.9593 23.188H30.4733V24.88H30.9413C33.0833 24.88 34.1993 25.474 34.1993 27.202C34.1993 28.426 33.4433 29.362 31.9133 29.362C30.3653 29.362 29.4653 28.426 29.3753 27.202H27.3953C27.5213 29.776 29.4473 31.072 31.9313 31.072C34.6673 31.072 36.1433 29.488 36.1433 27.4C36.1433 25.582 35.2613 24.448 33.8933 24.034V23.962C34.9193 23.62 35.9093 22.558 35.9093 20.992C35.9093 19.084 34.4873 17.572 31.8773 17.572C29.4833 17.572 27.7192 18.85 27.5753 21.118Z" fill="white"/>
</svg>
