<svg width="50" height="50" viewBox="0 0 50 50" fill="none" xmlns="http://www.w3.org/2000/svg">
<rect width="50" height="50" rx="8" fill="#2405F2"/>
<mask id="mask0_706_725" style="mask-type:alpha" maskUnits="userSpaceOnUse" x="0" y="0" width="50" height="50">
<rect width="50" height="50" rx="8" fill="#5C5E84"/>
</mask>
<g mask="url(#mask0_706_725)">
<rect x="-26" y="27" width="50" height="50" rx="8" fill="#FCD980"/>
<rect x="8" y="-9" width="50" height="50" rx="8" fill="#5239FA"/>
</g>
<path d="M16.08 24.268C16.08 28.084 17.088 30.964 20.76 30.964C24.432 30.964 25.44 28.084 25.44 24.268C25.44 20.524 24.432 17.644 20.76 17.644C17.088 17.644 16.08 20.524 16.08 24.268ZM23.424 24.268C23.424 26.842 23.154 29.092 20.76 29.092C18.366 29.092 18.096 26.842 18.096 24.268C18.096 21.82 18.366 19.516 20.76 19.516C23.154 19.516 23.424 21.82 23.424 24.268ZM33.8753 31H35.8913V28.264H37.5653V26.482H35.8913V18.04H33.4073L27.3593 26.716V28.264H33.8753V31ZM29.7173 26.482L33.9653 20.128V26.482H29.7173Z" fill="white"/>
</svg>
