<svg width="50" height="50" viewBox="0 0 50 50" fill="none" xmlns="http://www.w3.org/2000/svg">
<rect width="50" height="50" rx="8" fill="#2405F2"/>
<mask id="mask0_706_686" style="mask-type:alpha" maskUnits="userSpaceOnUse" x="0" y="0" width="50" height="50">
<rect width="50" height="50" rx="8" fill="#5C5E84"/>
</mask>
<g mask="url(#mask0_706_686)">
<rect x="-26" y="27" width="50" height="50" rx="8" fill="#FCD980"/>
<rect x="8" y="-9" width="50" height="50" rx="8" fill="#5239FA"/>
</g>
<path d="M15.936 24.556C15.936 26.584 16.296 28.174 17.016 29.326C17.736 30.466 18.936 31.036 20.616 31.036C22.296 31.036 23.496 30.46 24.216 29.308C24.936 28.156 25.296 26.572 25.296 24.556C25.296 22.552 24.936 20.98 24.216 19.84C23.496 18.688 22.296 18.112 20.616 18.112C18.936 18.112 17.736 18.682 17.016 19.822C16.296 20.962 15.936 22.54 15.936 24.556ZM23.244 24.556C23.244 26.02 23.064 27.142 22.704 27.922C22.344 28.702 21.648 29.092 20.616 29.092C19.572 29.092 18.87 28.702 18.51 27.922C18.15 27.142 17.97 26.02 17.97 24.556C17.97 23.104 18.15 21.994 18.51 21.226C18.87 20.458 19.572 20.074 20.616 20.074C21.648 20.074 22.344 20.464 22.704 21.244C23.064 22.012 23.244 23.116 23.244 24.556ZM26.4488 20.218V18.292H30.5168V31H28.3568V20.218H26.4488Z" fill="white"/>
</svg>
